<svg width="149" height="43" viewBox="0 0 149 43" fill="none" xmlns="http://www.w3.org/2000/svg">
<path d="M149 38.4624C149 39.0255 148.889 39.5831 148.673 40.1033C148.458 40.6235 148.142 41.096 147.743 41.494C147.345 41.892 146.872 42.2075 146.351 42.4226C145.83 42.6377 145.273 42.7481 144.709 42.7475H4.29625C3.15819 42.7487 2.06626 42.2979 1.26059 41.4943C0.45492 40.6908 0.00148316 39.6002 0 38.4624V4.29063C0.00148247 3.15237 0.45474 2.06121 1.26025 1.25675C2.06576 0.452295 3.15768 0.000295459 4.29625 0H144.708C145.272 -1.91639e-08 145.83 0.110989 146.35 0.326627C146.871 0.542265 147.344 0.858329 147.743 1.25677C148.141 1.6552 148.457 2.12821 148.673 2.64876C148.888 3.16932 148.999 3.72723 148.999 4.29063L149 38.4624Z" fill="#16222C"/>
<path d="M149 38.4624C149 39.0255 148.889 39.5831 148.673 40.1033C148.458 40.6235 148.142 41.096 147.743 41.494C147.345 41.892 146.872 42.2075 146.351 42.4226C145.83 42.6377 145.273 42.7481 144.709 42.7475H4.29625C3.15819 42.7487 2.06626 42.2979 1.26059 41.4943C0.45492 40.6908 0.00148316 39.6002 0 38.4624V4.29063C0.00148247 3.15237 0.45474 2.06121 1.26025 1.25675C2.06576 0.452295 3.15768 0.000295459 4.29625 0H144.708C145.272 -1.91639e-08 145.83 0.110989 146.35 0.326627C146.871 0.542265 147.344 0.858329 147.743 1.25677C148.141 1.6552 148.457 2.12821 148.673 2.64876C148.888 3.16932 148.999 3.72723 148.999 4.29063L149 38.4624Z" fill="#FFFEFF"/>
<path d="M32.7203 21.1388C32.6878 17.5329 35.6736 15.7786 35.8101 15.697C34.1191 13.2322 31.4982 12.8955 30.5772 12.8686C28.3759 12.637 26.2406 14.1854 25.1193 14.1854C23.9756 14.1854 22.2488 12.891 20.3877 12.929C17.9928 12.9659 15.7524 14.3522 14.5236 16.5047C11.9877 20.8938 13.879 27.3438 16.3086 30.8915C17.5239 32.6301 18.9441 34.569 20.8029 34.5008C22.6215 34.4269 23.3007 33.3428 25.4953 33.3428C27.6697 33.3428 28.3076 34.5008 30.2034 34.4572C32.1551 34.4269 33.3839 32.7118 34.5567 30.9586C35.9612 28.9683 36.5252 27.0059 36.5476 26.9052C36.5028 26.8895 32.7583 25.4597 32.7203 21.1388V21.1388ZM29.1391 10.5348C30.1172 9.31191 30.7864 7.64824 30.6007 5.95996C29.185 6.02261 27.4146 6.93892 26.3951 8.13493C25.4931 9.18885 24.6873 10.9163 24.8955 12.5408C26.4857 12.6594 28.1185 11.7386 29.1391 10.5348V10.5348Z" fill="#16222C"/>
<path d="M59.0605 34.2511H56.519L55.1268 29.8777H50.2878L48.9616 34.2511H46.4873L51.2827 19.362H54.2438L59.0605 34.2511V34.2511ZM54.7071 28.0428L53.4481 24.155C53.315 23.7578 53.0643 22.8225 52.6972 21.3501H52.6525C52.5047 21.9834 52.2686 22.9187 51.9452 24.155L50.7075 28.0428H54.7071ZM71.3684 28.7511C71.3684 30.577 70.8726 32.0202 69.88 33.0797C68.9914 34.0229 67.8868 34.4939 66.5697 34.4939C65.1473 34.4939 64.1244 33.9871 63.5033 32.9712V38.6044H61.1174V27.0438C61.1174 25.897 61.0872 24.7211 61.029 23.515H63.1273L63.2605 25.2167H63.3052C64.1009 23.9346 65.3084 23.2935 66.9289 23.2935C68.1957 23.2935 69.2533 23.7936 70.0993 24.7949C70.9442 25.7985 71.3684 27.1165 71.3684 28.7511ZM68.9377 28.8383C68.9377 27.7934 68.7027 26.9319 68.2304 26.2528C67.7145 25.5468 67.0218 25.1932 66.1533 25.1932C65.5647 25.1932 65.0298 25.3902 64.5519 25.7784C64.0729 26.17 63.7596 26.6813 63.613 27.3145C63.5475 27.5513 63.5103 27.7951 63.5022 28.0406V29.8318C63.5022 30.6116 63.7417 31.2706 64.2207 31.8099C64.6996 32.3469 65.3219 32.6165 66.0873 32.6165C66.986 32.6165 67.6854 32.2686 68.1856 31.5783C68.687 30.8857 68.9377 29.9728 68.9377 28.8383V28.8383ZM83.72 28.7511C83.72 30.577 83.2242 32.0202 82.2315 33.0797C81.3419 34.0229 80.2384 34.4939 78.9201 34.4939C77.4977 34.4939 76.4749 33.9871 75.8538 32.9712V38.6044H73.4678V27.0438C73.4678 25.897 73.4376 24.7211 73.3794 23.515H75.4777L75.6109 25.2167H75.6557C76.4502 23.9346 77.6578 23.2935 79.2793 23.2935C80.5451 23.2935 81.6026 23.7936 82.4509 24.7949C83.2947 25.7985 83.72 27.1165 83.72 28.7511V28.7511ZM81.2881 28.8383C81.2881 27.7934 81.052 26.9319 80.5797 26.2528C80.0638 25.5468 79.3733 25.1932 78.5049 25.1932C77.9163 25.1932 77.3813 25.3902 76.9012 25.7784C76.4223 26.17 76.11 26.6813 75.9634 27.3145C75.8907 27.6099 75.8515 27.8504 75.8515 28.0406V29.8318C75.8515 30.6116 76.0921 31.2706 76.5689 31.8099C77.0478 32.3458 77.6701 32.6165 78.4378 32.6165C79.3375 32.6165 80.037 32.2686 80.5361 31.5783C81.0375 30.8857 81.2881 29.9728 81.2881 28.8383V28.8383ZM97.5297 30.0746C97.5297 31.3422 97.0866 32.3726 96.2058 33.1681C95.2367 34.0363 93.8837 34.4715 92.1491 34.4715C90.5465 34.4715 89.2618 34.1627 88.2926 33.544L88.8443 31.5559C89.8907 32.1757 91.04 32.4845 92.2912 32.4845C93.1909 32.4845 93.8904 32.2809 94.3895 31.877C94.8898 31.472 95.1427 30.9305 95.1427 30.2547C95.1427 29.6495 94.9334 29.1426 94.5227 28.7298C94.1097 28.3181 93.4271 27.9343 92.468 27.5819C89.8605 26.6097 88.5556 25.1876 88.5556 23.317C88.5556 22.0953 89.0167 21.095 89.9366 20.313C90.8565 19.5321 92.0763 19.1416 93.5938 19.1416C94.9491 19.1416 96.0782 19.3777 96.9746 19.8487L96.3759 21.7932C95.5321 21.3367 94.5798 21.1085 93.5144 21.1085C92.6728 21.1085 92.0125 21.3154 91.5403 21.7272C91.143 22.0953 90.9415 22.5439 90.9415 23.0765C90.9415 23.6638 91.171 24.1516 91.6276 24.5343C92.0237 24.8867 92.7467 25.2704 93.7919 25.6822C95.0744 26.1991 96.0167 26.801 96.6199 27.4924C97.2276 28.1838 97.5297 29.0464 97.5297 30.0746ZM105.438 25.3051H102.809V30.5177C102.809 31.8434 103.272 32.5047 104.201 32.5047C104.627 32.5047 104.981 32.4689 105.261 32.3939L105.327 34.2053C104.857 34.3809 104.238 34.4693 103.471 34.4693C102.529 34.4693 101.792 34.1818 101.261 33.6067C100.731 33.0316 100.465 32.0683 100.465 30.7123V25.3006H98.8984V23.5106H100.465V21.5448L102.809 20.8377V23.5106H105.438V25.3051V25.3051ZM117.281 28.7947C117.281 30.4449 116.809 31.7998 115.866 32.8593C114.88 33.9502 113.569 34.4939 111.934 34.4939C110.356 34.4939 109.101 33.9714 108.166 32.9276C107.23 31.8815 106.762 30.5635 106.762 28.9737C106.762 27.31 107.246 25.9473 108.209 24.8878C109.175 23.8272 110.476 23.2969 112.111 23.2969C113.686 23.2969 114.952 23.8205 115.91 24.8654C116.825 25.8791 117.281 27.1881 117.281 28.7947ZM114.808 28.8495C114.808 27.8661 114.595 27.0225 114.169 26.3165C113.668 25.464 112.952 25.0377 112.024 25.0377C111.069 25.0377 110.336 25.464 109.837 26.3165C109.409 27.0225 109.196 27.8806 109.196 28.8943C109.196 29.8788 109.409 30.7246 109.837 31.4284C110.352 32.2809 111.072 32.7072 112.004 32.7072C112.916 32.7072 113.631 32.2719 114.148 31.4071C114.587 30.6844 114.808 29.8352 114.808 28.8495ZM125.04 25.6128C124.791 25.568 124.54 25.5459 124.288 25.5468C123.448 25.5468 122.799 25.8623 122.343 26.4978C121.946 27.0572 121.747 27.7643 121.747 28.6179V34.2511H119.361V26.8961C119.363 25.7691 119.34 24.6421 119.292 23.5161H121.37L121.457 25.5703H121.523C121.776 24.8643 122.172 24.2948 122.716 23.8686C123.214 23.4961 123.819 23.2944 124.441 23.2935C124.661 23.2935 124.861 23.3092 125.037 23.3371L125.04 25.6128V25.6128ZM135.71 28.3751C135.716 28.7377 135.687 29.1001 135.623 29.457H128.465C128.492 30.5177 128.839 31.3299 129.504 31.8893C130.107 32.3883 130.887 32.6389 131.845 32.6389C132.905 32.6389 133.872 32.4711 134.741 32.1321L135.115 33.7868C134.099 34.2299 132.899 34.4503 131.515 34.4503C129.849 34.4503 128.542 33.9602 127.591 32.9824C126.642 32.0034 126.167 30.6877 126.167 29.0397C126.167 27.4219 126.609 26.0737 127.494 24.9986C128.42 23.8507 129.673 23.2767 131.248 23.2767C132.796 23.2767 133.968 23.8507 134.763 24.9986C135.394 25.9082 135.71 27.0359 135.71 28.3751V28.3751ZM133.435 27.7564C133.452 27.0482 133.295 26.4385 132.972 25.9227C132.559 25.2581 131.923 24.927 131.072 24.927C130.292 24.927 129.656 25.2503 129.172 25.8992C128.775 26.415 128.539 27.0348 128.466 27.7542L133.435 27.7564Z" fill="#16222C"/>
<path d="M49.6004 14.0982C48.9367 14.0982 48.3626 14.0658 47.8848 14.011V6.81255C48.5531 6.70933 49.2285 6.65846 49.9048 6.66039C52.641 6.66039 53.9011 8.00632 53.9011 10.2003C53.9011 12.7311 52.4127 14.0982 49.6004 14.0982ZM50.001 7.58341C49.6317 7.58341 49.3172 7.60579 49.0565 7.65949V13.1316C49.1975 13.154 49.4683 13.164 49.8488 13.164C51.6416 13.164 52.6622 12.1437 52.6622 10.2328C52.6622 8.5288 51.739 7.58341 50.001 7.58341ZM57.828 14.1531C56.2859 14.1531 55.2865 13.0018 55.2865 11.4388C55.2865 9.80984 56.3072 8.64852 57.9153 8.64852C59.4351 8.64852 60.4568 9.74495 60.4568 11.3527C60.4568 13.0018 59.4037 14.1531 57.828 14.1531ZM57.8728 9.50552C57.0256 9.50552 56.4829 10.2976 56.4829 11.4053C56.4829 12.4916 57.0368 13.2837 57.8616 13.2837C58.6864 13.2837 59.2403 12.4368 59.2403 11.3829C59.2403 10.3088 58.6976 9.50552 57.8728 9.50552ZM69.2507 8.75704L67.6001 14.0333H66.5246L65.8408 11.742C65.6708 11.1816 65.5292 10.6128 65.4167 10.0381H65.3943C65.3081 10.6131 65.1447 11.1893 64.9713 11.742L64.2439 14.0333H63.1572L61.6039 8.75704H62.8092L63.4068 11.2654C63.5478 11.8629 63.6664 12.4267 63.7649 12.9593H63.7873C63.8734 12.5151 64.0144 11.9602 64.2215 11.2766L64.9713 8.75816H65.927L66.6443 11.2229C66.8178 11.8203 66.9588 12.4066 67.0685 12.9604H67.0998C67.1759 12.4178 67.2957 11.8416 67.4579 11.2229L68.0992 8.75816L69.2507 8.75704ZM75.3275 14.0333H74.1547V11.0036C74.1547 10.0705 73.7965 9.60286 73.0904 9.60286C72.3954 9.60286 71.9176 10.2003 71.9176 10.8951V14.0333H70.7447V10.2652C70.7447 9.79865 70.7336 9.29854 70.7011 8.75592H71.7329L71.7877 9.57042H71.8202C72.1358 9.00654 72.7759 8.64852 73.4933 8.64852C74.6012 8.64852 75.3286 9.49546 75.3286 10.8738L75.3275 14.0333ZM78.5617 14.0333H77.3878V6.33594H78.5617V14.0333ZM82.8378 14.1531C81.2968 14.1531 80.2963 13.0018 80.2963 11.4388C80.2963 9.80984 81.3169 8.64852 82.924 8.64852C84.4448 8.64852 85.4655 9.74495 85.4655 11.3527C85.4666 13.0018 84.4124 14.1531 82.8378 14.1531ZM82.8814 9.50552C82.0343 9.50552 81.4915 10.2976 81.4915 11.4053C81.4915 12.4916 82.0466 13.2837 82.8691 13.2837C83.695 13.2837 84.2479 12.4368 84.2479 11.3829C84.249 10.3088 83.7073 9.50552 82.8814 9.50552ZM90.0896 14.0333L90.0046 13.4258H89.9732C89.6151 13.9148 89.0925 14.1531 88.43 14.1531C87.4843 14.1531 86.8129 13.4907 86.8129 12.6002C86.8129 11.2979 87.942 10.6243 89.8971 10.6243V10.527C89.8971 9.83222 89.5289 9.48427 88.8015 9.48427C88.2811 9.48427 87.8245 9.61517 87.4228 9.87585L87.1844 9.10499C87.6723 8.80067 88.2811 8.64852 88.9962 8.64852C90.375 8.64852 91.0711 9.37574 91.0711 10.8313V12.7747C91.0711 13.3072 91.0946 13.7201 91.1472 14.0345L90.0896 14.0333ZM89.9285 11.4053C88.6258 11.4053 87.9723 11.7208 87.9723 12.4693C87.9723 13.0231 88.3091 13.2938 88.7769 13.2938C89.3734 13.2938 89.9285 12.8385 89.9285 12.2198V11.4053ZM96.7662 14.0333L96.7114 13.1864H96.6789C96.342 13.8264 95.7758 14.1531 94.9846 14.1531C93.7122 14.1531 92.7699 13.0343 92.7699 11.4601C92.7699 9.80984 93.7468 8.6474 95.0808 8.6474C95.787 8.6474 96.2872 8.8857 96.5692 9.36456H96.5927V6.33594H97.7667V12.6113C97.7667 13.1215 97.779 13.5992 97.8103 14.0333H96.7662ZM96.5927 10.9287C96.5927 10.1902 96.1037 9.56035 95.3572 9.56035C94.4877 9.56035 93.9561 10.3312 93.9561 11.4165C93.9561 12.4804 94.5078 13.2088 95.3337 13.2088C96.0712 13.2088 96.5927 12.5677 96.5927 11.808V10.9287ZM105.21 14.1531C103.669 14.1531 102.669 13.0018 102.669 11.4388C102.669 9.80984 103.69 8.64852 105.297 8.64852C106.818 8.64852 107.839 9.74495 107.839 11.3527C107.84 13.0018 106.787 14.1531 105.21 14.1531ZM105.253 9.50552C104.407 9.50552 103.865 10.2976 103.865 11.4053C103.865 12.4916 104.419 13.2837 105.242 13.2837C106.068 13.2837 106.621 12.4368 106.621 11.3829C106.623 10.3088 106.081 9.50552 105.253 9.50552ZM114.146 14.0333H112.972V11.0036C112.972 10.0705 112.614 9.60286 111.908 9.60286C111.213 9.60286 110.736 10.2003 110.736 10.8951V14.0333H109.562V10.2652C109.562 9.79865 109.551 9.29854 109.518 8.75592H110.55L110.605 9.57042H110.638C110.952 9.00654 111.593 8.6474 112.309 8.6474C113.417 8.6474 114.146 9.49434 114.146 10.8727V14.0333ZM122.037 9.63643H120.746V12.1985C120.746 12.8508 120.972 13.1763 121.429 13.1763C121.636 13.1763 121.81 13.154 121.949 13.1215L121.982 14.0121C121.755 14.0994 121.45 14.143 121.072 14.143C120.148 14.143 119.595 13.6328 119.595 12.297V9.63643H118.825V8.75704H119.595V7.79039L120.746 7.44244V8.75592H122.037V9.63643ZM128.246 14.0333H127.074V11.026C127.074 10.0817 126.717 9.60398 126.01 9.60398C125.402 9.60398 124.836 10.0168 124.836 10.8526V14.0333H123.664V6.33594H124.836V9.50552H124.859C125.228 8.93046 125.763 8.6474 126.446 8.6474C127.563 8.6474 128.246 9.51559 128.246 10.8951V14.0333ZM134.607 11.6771H131.087C131.109 12.6762 131.771 13.2401 132.75 13.2401C133.27 13.2401 133.749 13.1528 134.172 12.9906L134.355 13.8051C133.856 14.0222 133.268 14.1307 132.584 14.1307C130.934 14.1307 129.957 13.088 129.957 11.4713C129.957 9.85347 130.957 8.63733 132.452 8.63733C133.801 8.63733 134.647 9.63643 134.647 11.1457C134.654 11.3238 134.641 11.5022 134.607 11.6771ZM133.531 10.8414C133.531 10.0269 133.12 9.45182 132.371 9.45182C131.697 9.45182 131.164 10.0381 131.088 10.8414H133.531Z" fill="#16222C"/>
</svg>
