<svg width="145" height="43" viewBox="0 0 145 43" fill="none" xmlns="http://www.w3.org/2000/svg">
<g clip-path="url(#clip0_129_29)">
<path fill-rule="evenodd" clip-rule="evenodd" d="M139.508 42.75H5.36774C2.40935 42.75 0 40.3406 0 37.4063V5.34375C0 2.39869 2.40935 0 5.36774 0H139.508C142.464 0 144.876 2.39869 144.876 5.34375V37.4063C144.876 40.3406 142.464 42.75 139.508 42.75Z" fill="#FFFEFF"/>
<path d="M76.3212 14.1419C75.3538 14.1419 74.5382 13.8034 73.8932 13.1371C73.2536 12.4894 72.8964 11.5966 72.9124 10.6851C72.9124 9.71227 73.2429 8.88872 73.8932 8.23574C74.5355 7.56944 75.3511 7.23096 76.3186 7.23096C77.2754 7.23096 78.0909 7.56944 78.7466 8.23574C79.3969 8.91004 79.7274 9.73359 79.7274 10.6851C79.7167 11.6605 79.3862 12.4841 78.7466 13.1344C78.1043 13.806 77.2887 14.1419 76.3212 14.1419ZM47.5343 14.1419C46.5881 14.1419 45.7672 13.8087 45.0956 13.1504C44.4293 12.4948 44.0908 11.6659 44.0908 10.6877C44.0908 9.7096 44.4293 8.88072 45.0956 8.22508C45.7539 7.56677 46.5748 7.23362 47.5343 7.23362C48.0033 7.23362 48.4591 7.3269 48.8962 7.51614C49.3253 7.70003 49.6744 7.95056 49.933 8.25706L49.9969 8.33436L49.2747 9.0433L49.2 8.95535C48.7923 8.47028 48.2459 8.23308 47.5236 8.23308C46.8786 8.23308 46.3163 8.46229 45.8525 8.91537C45.3861 9.37112 45.1489 9.96813 45.1489 10.6904C45.1489 11.4127 45.3861 12.0097 45.8525 12.4654C46.3163 12.9185 46.8786 13.1477 47.5236 13.1477C48.2112 13.1477 48.7896 12.9185 49.24 12.4654C49.5065 12.1989 49.6718 11.8258 49.7304 11.354H47.4143V10.3573H50.7245L50.7379 10.4479C50.7618 10.6158 50.7858 10.789 50.7858 10.9489C50.7858 11.8684 50.5086 12.612 49.9596 13.1611C49.336 13.8114 48.5204 14.1419 47.5343 14.1419ZM85.8094 14.0006H84.7886L81.6623 8.99799L81.689 9.89883V13.9979H80.6682V7.37488H81.8329L81.8649 7.42552L84.8046 12.1376L84.7779 11.2394V7.37488H85.8094V14.0006V14.0006ZM68.6507 14.0006H67.6166V8.37167H65.823V7.37488H70.4418V8.37167H68.6481V14.0006H68.6507ZM64.9808 14.0006H63.9493V7.37488H64.9808V14.0006ZM59.1839 14.0006H58.1525V8.37167H56.3588V7.37488H60.9776V8.37167H59.1839V14.0006ZM55.7058 13.9899H51.7506V7.37488H55.7058V8.37167H52.7847V10.1893H55.4206V11.1755H52.7847V12.9931H55.7058V13.9899ZM74.6501 12.4521C75.1112 12.9132 75.6709 13.1451 76.3212 13.1451C76.9902 13.1451 77.5366 12.9185 77.9923 12.4521C78.4454 11.999 78.6746 11.4047 78.6746 10.6877C78.6746 9.9708 78.4454 9.37379 77.995 8.92337C77.5339 8.46228 76.9715 8.23041 76.3239 8.23041C75.6549 8.23041 75.1086 8.45695 74.6555 8.92337C74.2024 9.37645 73.9732 9.9708 73.9732 10.6877C73.9732 11.4047 74.1997 12.0017 74.6501 12.4521Z" fill="#16222C"/>
<path fill-rule="evenodd" clip-rule="evenodd" d="M72.8159 23.2515C70.2973 23.2515 68.2557 25.1625 68.2557 27.7984C68.2557 30.4103 70.3106 32.3452 72.8159 32.3452C75.3345 32.3452 77.3761 30.4209 77.3761 27.7984C77.3761 25.1625 75.3345 23.2515 72.8159 23.2515ZM72.8159 30.5435C71.438 30.5435 70.252 29.4028 70.252 27.7877C70.252 26.1486 71.4407 25.0319 72.8159 25.0319C74.1938 25.0319 75.3798 26.1486 75.3798 27.7877C75.3825 29.4135 74.1938 30.5435 72.8159 30.5435ZM62.8667 23.2515C60.348 23.2515 58.3065 25.1625 58.3065 27.7984C58.3065 30.4103 60.3614 32.3452 62.8667 32.3452C65.3853 32.3452 67.4268 30.4209 67.4268 27.7984C67.4268 25.1625 65.3826 23.2515 62.8667 23.2515ZM62.8667 30.5435C61.4888 30.5435 60.3027 29.4028 60.3027 27.7877C60.3027 26.1486 61.4914 25.0319 62.8667 25.0319C64.2446 25.0319 65.4306 26.1486 65.4306 27.7877C65.4306 29.4135 64.2446 30.5435 62.8667 30.5435ZM51.0278 24.6401V26.5644H55.6466C55.5054 27.6438 55.1482 28.4407 54.6018 28.9871C53.9249 29.664 52.8801 30.3996 51.0385 30.3996C48.2 30.3996 45.9799 28.1075 45.9799 25.2691C45.9799 22.4306 48.2 20.1386 51.0385 20.1386C52.571 20.1386 53.6877 20.7436 54.5166 21.5165L55.8811 20.1519C54.7298 19.0485 53.1973 18.2036 51.0491 18.2036C47.1552 18.2036 43.8877 21.3752 43.8877 25.2584C43.8877 29.1523 47.1526 32.3132 51.0491 32.3132C53.152 32.3132 54.7298 31.6256 55.9771 30.3303C57.2484 29.059 57.6509 27.2653 57.6509 25.8181C57.6509 25.3677 57.6162 24.9626 57.5442 24.6188H51.0251C51.0278 24.6161 51.0278 24.6401 51.0278 24.6401ZM99.452 26.1379C99.0709 25.1172 97.9195 23.2409 95.5582 23.2409C93.2181 23.2409 91.2725 25.0825 91.2725 27.7877C91.2725 30.341 93.1968 32.3346 95.7847 32.3346C97.8636 32.3346 99.0736 31.0633 99.572 30.317L98.0288 29.2829C97.5171 30.0425 96.8055 30.5409 95.7954 30.5409C94.7746 30.5409 94.0603 30.0771 93.5859 29.163L99.6652 26.6443C99.6652 26.647 99.452 26.1379 99.452 26.1379ZM93.2527 27.6571C93.2048 25.9007 94.6173 25.0079 95.6275 25.0079C96.4244 25.0079 97.088 25.3997 97.3145 25.97L93.2527 27.6571ZM88.3141 32.0627H90.3104V18.7047H88.3141V32.0627ZM85.0359 24.2616H84.9639C84.5135 23.7259 83.658 23.2409 82.5652 23.2409C80.2972 23.2409 78.2076 25.2371 78.2076 27.801C78.2076 30.3543 80.2865 32.3266 82.5652 32.3266C83.6447 32.3266 84.5135 31.8388 84.9639 31.2925H85.0359V31.9454C85.0359 33.6805 84.1084 34.616 82.6132 34.616C81.3899 34.616 80.6303 33.7365 80.3211 33.0009L78.5861 33.7258C79.0845 34.9252 80.4144 36.4097 82.6106 36.4097C84.9506 36.4097 86.9335 35.0318 86.9335 31.6709V23.5127H85.0466V24.2616C85.0492 24.2616 85.0359 24.2616 85.0359 24.2616ZM82.7438 30.5435C81.3659 30.5435 80.2145 29.3922 80.2145 27.801C80.2145 26.1966 81.3659 25.0346 82.7438 25.0346C84.1084 25.0346 85.1665 26.2099 85.1665 27.801C85.1798 29.3922 84.1111 30.5435 82.7438 30.5435ZM108.799 18.7047H104.026V32.0627H106.022V27.0041H108.802C111.011 27.0041 113.183 25.4024 113.183 22.8597C113.183 20.3171 111.019 18.7047 108.799 18.7047ZM108.858 25.1385H106.019V20.5543H108.858C110.353 20.5543 111.198 21.7883 111.198 22.8464C111.198 23.8938 110.342 25.1385 108.858 25.1385ZM121.184 23.2275C119.734 23.2275 118.239 23.8699 117.621 25.2691L119.39 26.0047C119.772 25.2691 120.47 25.0186 121.208 25.0186C122.242 25.0186 123.287 25.6369 123.311 26.7403V26.8815C122.954 26.679 122.17 26.3698 121.232 26.3698C119.321 26.3698 117.384 27.4146 117.384 29.3735C117.384 31.1672 118.951 32.3186 120.696 32.3186C122.037 32.3186 122.775 31.7136 123.236 31.0126H123.308V32.0467H125.233V26.9295C125.233 24.5468 123.463 23.2275 121.184 23.2275ZM120.934 30.5435C120.281 30.5435 119.367 30.2237 119.367 29.4028C119.367 28.3687 120.507 27.9769 121.48 27.9769C122.36 27.9769 122.775 28.1662 123.298 28.4274C123.154 29.6267 122.141 30.5329 120.934 30.5435ZM132.253 23.5127L129.961 29.3069H129.889L127.514 23.5127H125.366L128.929 31.6123L126.898 36.1138H128.977L134.46 23.5127H132.253ZM114.284 32.0627H116.28V18.7047H114.284V32.0627Z" fill="#16222C"/>
<path fill-rule="evenodd" clip-rule="evenodd" d="M11.1508 8.05145C10.8417 8.3846 10.6631 8.89366 10.6631 9.55996V33.1924C10.6631 33.8587 10.8417 34.3678 11.1615 34.6876L11.2441 34.7595L24.4849 21.5188V21.2229L11.2334 7.97949L11.1508 8.05145Z" fill="url(#paint0_linear_129_29)"/>
<path fill-rule="evenodd" clip-rule="evenodd" d="M28.8909 25.9459L24.4746 21.5296V21.2205L28.8909 16.8042L28.9868 16.8628L34.2106 19.8319C35.7058 20.6741 35.7058 22.0653 34.2106 22.9182L28.9868 25.8872L28.8909 25.9459Z" fill="url(#paint1_linear_129_29)"/>
<path fill-rule="evenodd" clip-rule="evenodd" d="M28.987 25.8872L24.4748 21.375L11.1514 34.6984C11.6391 35.2208 12.4573 35.2794 13.3715 34.7704L28.987 25.8872Z" fill="url(#paint2_linear_129_29)"/>
<path fill-rule="evenodd" clip-rule="evenodd" d="M28.987 16.8627L13.3715 7.99291C12.4573 7.47053 11.6364 7.54249 11.1514 8.06487L24.4748 21.3749L28.987 16.8627Z" fill="url(#paint3_linear_129_29)"/>
<path opacity="0.2" fill-rule="evenodd" clip-rule="evenodd" d="M28.8911 25.791L13.3822 34.6022C12.516 35.1006 11.7431 35.066 11.2447 34.6129L11.1621 34.6955L11.2447 34.7674C11.7431 35.2179 12.516 35.2552 13.3822 34.7568L28.9977 25.887L28.8911 25.791Z" fill="#FFFEFF"/>
<path opacity="0.12" fill-rule="evenodd" clip-rule="evenodd" d="M34.211 22.7636L28.8779 25.7913L28.9739 25.8872L34.1977 22.9182C34.9466 22.4917 35.3144 21.932 35.3144 21.375C35.2691 21.8867 34.888 22.3718 34.211 22.7636Z" fill="#FFFEFF"/>
<path opacity="0.25" fill-rule="evenodd" clip-rule="evenodd" d="M13.3709 8.14776L34.2102 19.9866C34.8872 20.3678 35.2683 20.8661 35.327 21.3752C35.327 20.8182 34.9592 20.2585 34.2102 19.832L13.3709 7.99317C11.8758 7.13764 10.6631 7.85192 10.6631 9.56032V9.7149C10.6631 8.00383 11.8758 7.30288 13.3709 8.14776Z" fill="#FFFEFF"/>
</g>
<defs>
<linearGradient id="paint0_linear_129_29" x1="23.2972" y1="9.30499" x2="2.08777" y2="14.9563" gradientUnits="userSpaceOnUse">
<stop stop-color="#00A0FF"/>
<stop offset="0.00657" stop-color="#00A1FF"/>
<stop offset="0.2601" stop-color="#00BEFF"/>
<stop offset="0.5122" stop-color="#00D2FF"/>
<stop offset="0.7604" stop-color="#00DFFF"/>
<stop offset="1" stop-color="#00E3FF"/>
</linearGradient>
<linearGradient id="paint1_linear_129_29" x1="36.1605" y1="21.3751" x2="10.3001" y2="21.3751" gradientUnits="userSpaceOnUse">
<stop stop-color="#FFE000"/>
<stop offset="0.4087" stop-color="#FFBD00"/>
<stop offset="0.7754" stop-color="#FFA500"/>
<stop offset="1" stop-color="#FF9C00"/>
</linearGradient>
<linearGradient id="paint2_linear_129_29" x1="26.5334" y1="23.8303" x2="9.50658" y2="52.4879" gradientUnits="userSpaceOnUse">
<stop stop-color="#FF3A44"/>
<stop offset="1" stop-color="#C31162"/>
</linearGradient>
<linearGradient id="paint3_linear_129_29" x1="7.79639" y1="0.191026" x2="15.3927" y2="12.9899" gradientUnits="userSpaceOnUse">
<stop stop-color="#32A071"/>
<stop offset="0.0685" stop-color="#2DA771"/>
<stop offset="0.4762" stop-color="#15CF74"/>
<stop offset="0.8009" stop-color="#06E775"/>
<stop offset="1" stop-color="#00F076"/>
</linearGradient>
<clipPath id="clip0_129_29">
<rect width="144.876" height="42.75" fill="white"/>
</clipPath>
</defs>
</svg>
