<svg width="50" height="50" viewBox="0 0 50 50" fill="none" xmlns="http://www.w3.org/2000/svg">
<path d="M19.9001 1.01443C23.1655 -0.338144 26.8345 -0.338143 30.0999 1.01443L38.3542 4.43348C41.6196 5.78605 44.214 8.3804 45.5665 11.6458L48.9856 19.9001C50.3381 23.1655 50.3381 26.8345 48.9856 30.0999L45.5665 38.3542C44.214 41.6196 41.6196 44.214 38.3542 45.5665L30.0999 48.9856C26.8345 50.3381 23.1655 50.3381 19.9001 48.9856L11.6458 45.5665C8.3804 44.214 5.78605 41.6196 4.43348 38.3542L1.01443 30.0999C-0.338144 26.8345 -0.338143 23.1655 1.01443 19.9001L4.43348 11.6458C5.78605 8.3804 8.3804 5.78605 11.6458 4.43348L19.9001 1.01443Z" fill="#F95C4F"/>
<path d="M13.7123 19.6694C14.242 19.6694 14.6896 20.1199 14.4571 20.5957C14.4087 20.6947 14.3525 20.7902 14.2886 20.8813C14.0395 21.2363 13.6871 21.5059 13.2794 21.6535C12.8716 21.8011 12.4282 21.8195 12.0097 21.7061C11.5911 21.5928 11.2176 21.3532 10.94 21.02C10.6624 20.6868 10.4943 20.2761 10.4584 19.844C10.4225 19.4118 10.5207 18.979 10.7395 18.6046C10.9584 18.2302 11.2873 17.9324 11.6814 17.7515C11.7825 17.7052 11.8866 17.6671 11.9927 17.6374C12.5027 17.4947 12.8649 18.0164 12.7692 18.5373C12.661 19.1264 13.1134 19.6694 13.7123 19.6694Z" fill="#FFFEFF"/>
<path d="M35.7168 12.8951C36.6061 12.8951 37.3557 12.1461 37.0071 11.328C36.8853 11.0421 36.7299 10.7697 36.5428 10.5169C36.0335 9.82864 35.3166 9.32206 34.4978 9.07174C33.679 8.82143 32.8014 8.84062 31.9943 9.12649C31.1872 9.41235 30.4931 9.94979 30.0144 10.6597C29.5356 11.3696 29.2974 12.2144 29.3349 13.0699C29.3723 13.9253 29.6834 14.7461 30.2223 15.4115C30.7612 16.0768 31.4995 16.5516 32.3285 16.7659C32.633 16.8446 32.9438 16.8866 33.2545 16.8924C34.1437 16.909 34.5571 15.9333 34.2238 15.1088C33.796 14.0503 34.5751 12.8951 35.7168 12.8951Z" fill="#FFFEFF"/>
<path d="M38.8971 31.5524C39.3798 31.5524 39.7856 31.1489 39.6165 30.6967C39.5312 30.4686 39.4117 30.2529 39.2606 30.0576C38.9296 29.6296 38.4659 29.3236 37.9422 29.1876C37.4186 29.0516 36.8646 29.0932 36.3671 29.306C35.8697 29.5188 35.4569 29.8907 35.1936 30.3633C34.9303 30.836 34.8313 31.3826 34.9122 31.9176C34.9931 32.4526 35.2493 32.9456 35.6406 33.3192C36.0318 33.6929 36.5361 33.9261 37.0742 33.9823C37.3197 34.008 37.566 33.9961 37.8049 33.9486C38.2784 33.8543 38.4079 33.297 38.1538 32.8865C37.7934 32.3042 38.2122 31.5524 38.8971 31.5524Z" fill="#FFFEFF"/>
<path d="M22.6662 34.6617C23.2806 34.6617 23.7969 34.1482 23.5818 33.5727C23.4732 33.2823 23.3211 33.0078 23.1288 32.7593C22.7075 32.2146 22.1174 31.8251 21.4509 31.652C20.7844 31.4789 20.0793 31.5319 19.4462 31.8027C18.8131 32.0735 18.2878 32.5468 17.9527 33.1484C17.6175 33.7499 17.4916 34.4457 17.5945 35.1266C17.6975 35.8074 18.0235 36.4348 18.5215 36.9104C19.0195 37.386 19.6612 37.6829 20.3461 37.7544C20.6586 37.787 20.9721 37.7719 21.2762 37.7114C21.8788 37.5914 22.0436 36.8822 21.7202 36.3597C21.2614 35.6186 21.7945 34.6617 22.6662 34.6617Z" fill="#FFFEFF"/>
</svg>
