<svg width="58" height="50" viewBox="0 0 58 50" fill="none" xmlns="http://www.w3.org/2000/svg">
<path d="M3.20878 22.5273L30.6873 1.59598C32.2868 0.37764 34.2923 -0.24711 36.2743 0.0912796C52.5448 2.86928 57.3004 16.074 57.6014 22.6962V41.8568C57.6014 46.3542 53.9555 50 49.4582 50H8.14323C3.64585 50 0 46.3542 0 41.8568V29.0052C0 26.4635 1.18683 24.0675 3.20878 22.5273Z" fill="#F95C4F"/>
<path d="M4.55078 30.6C4.55078 30.0709 4.9797 29.642 5.50881 29.642H52.2126C52.7417 29.642 53.1707 30.0709 53.1707 30.6V34.1926C53.1707 34.7217 52.7417 35.1506 52.2126 35.1506H5.50881C4.97971 35.1506 4.55078 34.7217 4.55078 34.1926V30.6Z" fill="#FFFEFF"/>
<path d="M4.55078 38.5036C4.55078 37.9745 4.9797 37.5455 5.50881 37.5455H52.2126C52.7417 37.5455 53.1707 37.9745 53.1707 38.5036V40.8986C53.1707 42.8828 51.5622 44.4912 49.5781 44.4912H10.5385C7.23155 44.4912 4.55078 41.8105 4.55078 38.5036Z" fill="#FFFEFF"/>
</svg>
