<svg width="53" height="50" viewBox="0 0 53 50" fill="none" xmlns="http://www.w3.org/2000/svg">
<path fill-rule="evenodd" clip-rule="evenodd" d="M1.07116 19.6106C2.77268 21.9502 5.67184 24.0118 5.67184 26.9048V44.7619C5.67184 47.6548 8.01702 50 10.9099 50H25.9099H26.8623H41.8623C44.7552 50 47.1004 47.6548 47.1004 44.7619V26.9048C47.1004 24.0118 49.9996 21.9502 51.7011 19.6106C54.1265 16.2757 52.366 9.65233 47.1004 5.59524C41.4682 1.25565 36.7982 0.0714275 26.8639 0.00319016C26.8631 0.00318413 26.8623 0.00247163 26.8623 0.001595C26.8623 0.000714101 26.8616 -9.3407e-09 26.8607 0C26.7012 1.69135e-06 26.543 0.000257054 26.3861 0.000773726C26.2292 0.000257054 26.071 1.69135e-06 25.9115 0C25.9107 -9.3407e-09 25.9099 0.000714101 25.9099 0.001595C25.9099 0.00247163 25.9092 0.00318413 25.9083 0.00319016C15.974 0.0714275 11.3041 1.25565 5.67184 5.59524C0.406255 9.65233 -1.35423 16.2757 1.07116 19.6106Z" fill="#F95C4F"/>
<path d="M34.4742 33.9606C33.0881 35.2437 31.5928 36.3118 29.9882 37.1649C29.2038 37.567 28.4538 37.894 27.7382 38.146C26.5348 38.5697 25.3087 37.8144 24.895 36.6075C24.3685 35.0713 25.3468 33.4237 26.8532 32.8171C27.1105 32.7135 27.3694 32.6023 27.6298 32.4834C28.9142 31.8664 30.048 31.1029 31.0312 30.1928C31.692 29.5811 32.1713 29.032 32.4692 28.5455C32.752 28.0428 32.892 27.6121 32.8892 27.2534C32.8875 26.8636 32.7591 26.5308 32.5039 26.2552C32.1437 25.8661 31.6812 25.7221 31.1165 25.8234C30.5518 25.9246 29.9199 26.1634 29.2207 26.5396C28.5215 26.9159 27.7578 27.3519 26.9297 27.8475C26.1177 28.3282 25.2601 28.7758 24.3569 29.1904C23.4699 29.59 22.5792 29.8726 21.6849 30.0381C20.7756 30.1874 19.8735 30.1343 18.9786 29.8788C18.0686 29.6071 17.1934 29.0173 16.3529 28.1093C15.4073 27.0878 14.8257 25.91 14.6083 24.5758C14.4069 23.2267 14.6296 21.7861 15.2764 20.254C15.9232 18.7219 17.0766 17.1875 18.7367 15.6508C19.8488 14.6213 21.0567 13.7439 22.3606 13.0186C22.9253 12.6913 23.4884 12.4078 24.0499 12.1679C25.271 11.6463 26.5955 12.3783 27.0578 13.623C27.6068 15.1013 26.7331 16.7009 25.3075 17.375C25.1322 17.4579 24.9602 17.5439 24.7916 17.633C23.7917 18.137 22.921 18.7322 22.1797 19.4186C21.5189 20.0303 21.0545 20.5956 20.7867 21.1145C20.5038 21.6172 20.3788 22.0641 20.4117 22.4552C20.4445 22.8463 20.596 23.1878 20.8662 23.4797C21.2114 23.8526 21.6583 23.9959 22.2069 23.9096C22.7566 23.7921 23.381 23.5453 24.0802 23.169C24.7805 22.7616 25.5367 22.3175 26.3487 21.8368C27.1768 21.3412 28.0344 20.8935 28.9214 20.4939C29.8096 20.0631 30.7083 19.7731 31.6176 19.6238C32.512 19.4583 33.406 19.5189 34.2998 19.8055C35.1947 20.061 36.055 20.6346 36.8805 21.5263C37.796 22.5154 38.362 23.6926 38.5784 25.0579C38.7959 26.3921 38.5813 27.8252 37.9345 29.3573C37.3038 30.8745 36.1504 32.4089 34.4742 33.9606Z" fill="#FFFEFF"/>
</svg>
