<svg width="1477" height="134" viewBox="0 0 1477 134" fill="none" xmlns="http://www.w3.org/2000/svg">
<path d="M35.7676 82.9247C33.5946 81.127 31.9392 79.0995 30.8775 76.9359C29.1875 73.4303 20.5275 74.9227 22.2175 78.4474C23.4639 81.0952 25.4302 83.5841 28.0276 85.8015C29.4976 87.0335 31.8676 87.7067 34.1676 86.824C36.0876 86.1064 37.2476 84.163 35.7676 82.9247Z" fill="#16222C"/>
<path d="M34.9895 113.473C31.3466 114.869 27.372 115.881 23.2196 116.47C17.5796 117.283 19.9695 122.777 25.6095 121.964C30.5138 121.248 35.2086 120.043 39.5195 118.395C44.4695 116.496 39.9595 111.568 34.9895 113.473Z" fill="#16222C"/>
<path d="M85.5969 97.732C82.3671 97.6797 79.1758 97.2728 76.1645 96.5293C70.7926 95.1882 67.4602 100.481 72.862 101.829C76.5843 102.769 80.5332 103.298 84.5369 103.39C85.715 103.465 86.893 103.246 87.8226 102.781C88.7522 102.315 89.3608 101.638 89.5204 100.893C89.7951 99.4494 88.0487 97.7772 85.5969 97.732Z" fill="#16222C"/>
<path d="M123.048 118.898C122.445 118.246 121.461 117.773 120.31 117.582C119.16 117.39 117.936 117.496 116.908 117.875L109.198 121.051C108.185 121.44 107.45 122.065 107.149 122.793C106.849 123.521 107.006 124.294 107.588 124.95C108.193 125.6 109.177 126.072 110.327 126.263C111.477 126.455 112.699 126.35 113.728 125.972L121.438 122.797C122.451 122.407 123.186 121.782 123.487 121.054C123.787 120.327 123.63 119.553 123.048 118.898Z" fill="#16222C"/>
<path d="M137.254 98.573L132.334 92.2223C131.73 91.5724 130.745 91.1003 129.596 90.9089C128.446 90.7174 127.223 90.8219 126.194 91.1997C125.183 91.5906 124.45 92.2156 124.149 92.9429C123.849 93.6703 124.005 94.4433 124.584 95.0991L129.504 101.45C130.107 102.101 131.092 102.574 132.242 102.766C133.393 102.957 134.616 102.852 135.644 102.472C136.658 102.082 137.393 101.458 137.693 100.73C137.994 100.002 137.836 99.2284 137.254 98.573Z" fill="#16222C"/>
<path d="M176.184 114.328C171.97 114.613 167.889 115.434 164.184 116.741C159.184 118.532 163.654 123.454 168.714 121.657C171.028 120.809 173.578 120.255 176.224 120.025C178.654 119.834 180.714 118.869 180.714 117.173C180.674 115.763 178.614 114.138 176.184 114.328Z" fill="#16222C"/>
<path d="M87.7286 58.4391C84.0944 58.372 80.4855 58.8439 77.1886 59.8173C74.9486 60.4524 74.4586 62.4909 75.5786 63.7103C76.9286 65.1646 79.4786 65.3551 81.7186 64.7327C83.6188 64.2415 85.6735 64.0393 87.7186 64.1422C88.9121 64.1422 90.0566 63.841 90.9005 63.3051C91.7444 62.7691 92.2186 62.0423 92.2186 61.2843C92.2186 60.5264 91.7444 59.7995 90.9005 59.2635C90.0566 58.7276 88.9121 58.4265 87.7186 58.4265L87.7286 58.4391Z" fill="#16222C"/>
<path d="M201.752 46.3074L199.822 41.4682C199.505 40.7388 198.745 40.1193 197.709 39.746C196.673 39.3726 195.445 39.2759 194.297 39.4772C193.148 39.6785 192.173 40.1612 191.585 40.8192C190.997 41.4772 190.845 42.2566 191.162 42.9859C191.812 44.599 192.452 46.2121 193.102 47.8252C193.241 48.198 193.498 48.5491 193.856 48.8575C194.214 49.166 194.666 49.4254 195.185 49.6204C195.704 49.8154 196.28 49.9419 196.878 49.9924C197.476 50.0429 198.084 50.0164 198.666 49.9143C199.247 49.8123 199.791 49.6368 200.263 49.3985C200.735 49.1601 201.127 48.8639 201.415 48.5272C201.703 48.1905 201.882 47.8204 201.939 47.439C201.997 47.0576 201.933 46.6728 201.752 46.3074Z" fill="#16222C"/>
<path d="M175.213 8.40893L166.123 10.2379C160.633 11.3366 162.983 16.8426 168.513 15.7312L177.603 13.9086C183.093 12.8036 180.743 7.27216 175.213 8.40893Z" fill="#16222C"/>
<path d="M158.945 35.8083C155.764 35.9052 152.581 35.6539 149.535 35.0653C143.975 33.9984 141.625 39.5108 147.145 40.5587C150.967 41.2908 154.956 41.6106 158.945 41.5049C164.715 41.3525 164.735 35.6559 158.945 35.8083Z" fill="#16222C"/>
<path d="M117.567 9.6242C116.42 9.42866 115.198 9.52753 114.165 9.89949C113.132 10.2714 112.371 10.8866 112.047 11.612L110.217 16.3496C110.031 16.7159 109.963 17.1024 110.019 17.4857C110.074 17.869 110.251 18.2413 110.539 18.58C110.827 18.9187 111.22 19.2169 111.694 19.4566C112.169 19.6962 112.715 19.8725 113.299 19.9746C113.883 20.0767 114.494 20.1026 115.095 20.0508C115.695 19.9989 116.273 19.8703 116.794 19.6729C117.314 19.4754 117.766 19.213 118.122 18.9017C118.479 18.5903 118.732 18.2363 118.867 17.8611L120.697 13.1298C121 12.4016 120.841 11.6271 120.257 10.972C119.672 10.3169 118.706 9.83317 117.567 9.6242Z" fill="#16222C"/>
<path d="M36.0795 7.27106C33.8901 7.27442 31.7205 7.0092 29.6896 6.48994C27.3996 5.94378 24.7696 7.08684 24.1696 8.48399C23.4696 10.0844 25.0196 11.4371 27.2996 11.9832C30.1089 12.6448 33.0833 12.9783 36.0795 12.9676C41.8695 12.974 41.8695 7.27106 36.0795 7.27106Z" fill="#16222C"/>
<path d="M196.259 80.8771C195.659 79.499 193.019 78.3368 190.739 78.8893L180.309 81.4678C178.029 82.033 176.469 83.373 177.169 84.9734C177.769 86.3578 180.409 87.5137 182.689 86.9675L193.129 84.3827C195.399 83.8493 196.959 82.4902 196.259 80.8771Z" fill="#16222C"/>
<path d="M142.869 57.3381C142.019 56.8143 140.882 56.5214 139.698 56.5214C138.515 56.5214 137.378 56.8143 136.528 57.3381C133.673 58.9035 131.753 61.0449 131.088 63.403C130.678 64.9336 131.688 66.4641 134.218 66.9086C136.398 67.2897 139.329 66.4514 139.739 64.9209C139.849 64.5271 139.988 64.146 140.158 63.7586C140.328 63.3712 140.368 63.3903 140.158 63.6062C140.292 63.4284 140.432 63.2506 140.578 63.0728C140.658 62.9712 141.508 62.1456 141.178 62.4377C141.668 62.0525 142.218 61.6993 142.818 61.3835C144.728 60.3674 144.499 58.3732 142.869 57.3381Z" fill="#16222C"/>
<path d="M74.5813 31.3586L70.8914 25.5985C69.9714 24.1569 67.8913 23.1598 65.3713 23.6044C63.2213 23.979 61.3113 25.6683 62.2413 27.11L65.9314 32.8765C66.8514 34.3117 68.9313 35.3151 71.4513 34.8642C73.6013 34.4895 75.5013 32.8002 74.5813 31.3586Z" fill="#16222C"/>
<path d="M31.67 44.0477C31.06 42.6569 28.43 41.5074 26.15 42.0535C23.3847 42.7516 20.4608 43.1632 17.49 43.2728C16.3048 43.2843 15.1732 43.5884 14.3351 44.1207C13.4969 44.653 13.0181 45.3717 13 46.1244C13.0079 46.8785 13.4838 47.6002 14.3245 48.1328C15.1651 48.6655 16.3025 48.9661 17.49 48.9695C21.2516 48.8701 24.9644 48.3921 28.49 47.5533C30.81 46.9944 32.36 45.6544 31.67 44.0477Z" fill="#16222C"/>
<path d="M246.768 82.9247C244.595 81.127 242.939 79.0995 241.878 76.9359C240.188 73.4303 231.528 74.9227 233.218 78.4474C234.464 81.0952 236.43 83.5841 239.028 85.8015C240.498 87.0335 242.868 87.7067 245.168 86.824C247.088 86.1064 248.248 84.163 246.768 82.9247Z" fill="#16222C"/>
<path d="M245.99 113.473C242.347 114.869 238.372 115.881 234.22 116.47C228.58 117.283 230.969 122.777 236.609 121.964C241.514 121.248 246.209 120.043 250.52 118.395C255.47 116.496 250.959 111.568 245.99 113.473Z" fill="#16222C"/>
<path d="M296.597 97.732C293.367 97.6797 290.176 97.2728 287.164 96.5293C281.793 95.1882 278.46 100.481 283.862 101.829C287.584 102.769 291.533 103.298 295.537 103.39C296.715 103.465 297.893 103.246 298.823 102.781C299.752 102.315 300.361 101.638 300.52 100.893C300.795 99.4494 299.049 97.7772 296.597 97.732Z" fill="#16222C"/>
<path d="M334.048 118.898C333.445 118.246 332.461 117.773 331.31 117.582C330.16 117.39 328.936 117.496 327.908 117.875L320.198 121.051C319.185 121.44 318.45 122.065 318.149 122.793C317.849 123.521 318.006 124.294 318.588 124.95C319.193 125.6 320.177 126.072 321.327 126.263C322.477 126.455 323.699 126.35 324.728 125.972L332.438 122.797C333.451 122.407 334.186 121.782 334.487 121.054C334.787 120.327 334.63 119.553 334.048 118.898Z" fill="#16222C"/>
<path d="M348.254 98.573L343.334 92.2223C342.73 91.5724 341.745 91.1003 340.596 90.9089C339.446 90.7174 338.223 90.8219 337.194 91.1997C336.183 91.5906 335.45 92.2156 335.149 92.9429C334.849 93.6703 335.005 94.4433 335.584 95.0991L340.504 101.45C341.107 102.101 342.092 102.574 343.242 102.766C344.393 102.957 345.616 102.852 346.644 102.472C347.658 102.082 348.393 101.458 348.693 100.73C348.994 100.002 348.836 99.2284 348.254 98.573Z" fill="#16222C"/>
<path d="M387.184 114.328C382.97 114.613 378.889 115.434 375.184 116.741C370.184 118.532 374.654 123.454 379.714 121.657C382.028 120.809 384.578 120.255 387.224 120.025C389.654 119.834 391.714 118.869 391.714 117.173C391.674 115.763 389.614 114.138 387.184 114.328Z" fill="#16222C"/>
<path d="M298.729 58.4391C295.094 58.372 291.486 58.8439 288.189 59.8173C285.949 60.4524 285.459 62.4909 286.579 63.7103C287.929 65.1646 290.479 65.3551 292.719 64.7327C294.619 64.2415 296.673 64.0393 298.719 64.1422C299.912 64.1422 301.057 63.841 301.9 63.3051C302.744 62.7691 303.219 62.0423 303.219 61.2843C303.219 60.5264 302.744 59.7995 301.9 59.2635C301.057 58.7276 299.912 58.4265 298.719 58.4265L298.729 58.4391Z" fill="#16222C"/>
<path d="M412.752 46.3074L410.822 41.4682C410.505 40.7388 409.745 40.1193 408.709 39.746C407.673 39.3726 406.445 39.2759 405.297 39.4772C404.148 39.6785 403.173 40.1612 402.585 40.8192C401.997 41.4772 401.845 42.2566 402.162 42.9859C402.812 44.599 403.452 46.2121 404.102 47.8252C404.241 48.198 404.498 48.5491 404.856 48.8575C405.214 49.166 405.666 49.4254 406.185 49.6204C406.704 49.8154 407.28 49.9419 407.878 49.9924C408.476 50.0429 409.084 50.0164 409.666 49.9143C410.247 49.8123 410.791 49.6368 411.263 49.3985C411.735 49.1601 412.127 48.8639 412.415 48.5272C412.703 48.1905 412.882 47.8204 412.939 47.439C412.997 47.0576 412.933 46.6728 412.752 46.3074Z" fill="#16222C"/>
<path d="M386.213 8.40893L377.123 10.2379C371.633 11.3366 373.983 16.8426 379.513 15.7312L388.603 13.9086C394.093 12.8036 391.743 7.27216 386.213 8.40893Z" fill="#16222C"/>
<path d="M369.945 35.8083C366.764 35.9052 363.581 35.6539 360.535 35.0653C354.975 33.9984 352.625 39.5108 358.145 40.5587C361.967 41.2908 365.956 41.6106 369.945 41.5049C375.715 41.3525 375.735 35.6559 369.945 35.8083Z" fill="#16222C"/>
<path d="M328.567 9.6242C327.42 9.42866 326.198 9.52753 325.165 9.89949C324.132 10.2714 323.371 10.8866 323.047 11.612L321.217 16.3496C321.031 16.7159 320.963 17.1024 321.019 17.4857C321.074 17.869 321.251 18.2413 321.539 18.58C321.827 18.9187 322.22 19.2169 322.694 19.4566C323.169 19.6962 323.715 19.8725 324.299 19.9746C324.883 20.0767 325.494 20.1026 326.095 20.0508C326.695 19.9989 327.273 19.8703 327.794 19.6729C328.314 19.4754 328.766 19.213 329.122 18.9017C329.479 18.5903 329.732 18.2363 329.867 17.8611L331.697 13.1298C332 12.4016 331.841 11.6271 331.257 10.972C330.672 10.3169 329.706 9.83317 328.567 9.6242Z" fill="#16222C"/>
<path d="M247.079 7.27106C244.89 7.27442 242.721 7.0092 240.69 6.48994C238.4 5.94378 235.77 7.08684 235.17 8.48399C234.47 10.0844 236.02 11.4371 238.3 11.9832C241.109 12.6448 244.083 12.9783 247.079 12.9676C252.869 12.974 252.869 7.27106 247.079 7.27106Z" fill="#16222C"/>
<path d="M407.259 80.8771C406.659 79.499 404.019 78.3368 401.739 78.8893L391.309 81.4678C389.029 82.033 387.469 83.373 388.169 84.9734C388.769 86.3578 391.409 87.5137 393.689 86.9675L404.129 84.3827C406.399 83.8493 407.959 82.4902 407.259 80.8771Z" fill="#16222C"/>
<path d="M353.869 57.3381C353.019 56.8143 351.882 56.5214 350.698 56.5214C349.515 56.5214 348.378 56.8143 347.528 57.3381C344.673 58.9035 342.753 61.0449 342.088 63.403C341.678 64.9336 342.688 66.4641 345.218 66.9086C347.398 67.2897 350.329 66.4514 350.739 64.9209C350.849 64.5271 350.988 64.146 351.158 63.7586C351.328 63.3712 351.368 63.3903 351.158 63.6062C351.292 63.4284 351.432 63.2506 351.578 63.0728C351.658 62.9712 352.508 62.1456 352.178 62.4377C352.668 62.0525 353.218 61.6993 353.818 61.3835C355.728 60.3674 355.499 58.3732 353.869 57.3381Z" fill="#16222C"/>
<path d="M285.581 31.3586L281.891 25.5985C280.971 24.1569 278.891 23.1598 276.371 23.6044C274.221 23.979 272.311 25.6683 273.241 27.11L276.931 32.8765C277.851 34.3117 279.931 35.3151 282.451 34.8642C284.601 34.4895 286.501 32.8002 285.581 31.3586Z" fill="#16222C"/>
<path d="M242.67 44.0477C242.06 42.6569 239.43 41.5074 237.15 42.0535C234.385 42.7516 231.461 43.1632 228.49 43.2728C227.305 43.2843 226.173 43.5884 225.335 44.1207C224.497 44.653 224.018 45.3717 224 46.1244C224.008 46.8785 224.484 47.6002 225.324 48.1328C226.165 48.6655 227.303 48.9661 228.49 48.9695C232.252 48.8701 235.964 48.3921 239.49 47.5533C241.81 46.9944 243.36 45.6544 242.67 44.0477Z" fill="#16222C"/>
<path d="M457.768 82.9247C455.595 81.127 453.939 79.0995 452.878 76.9359C451.188 73.4303 442.528 74.9227 444.218 78.4474C445.464 81.0952 447.43 83.5841 450.028 85.8015C451.498 87.0335 453.868 87.7067 456.168 86.824C458.088 86.1064 459.248 84.163 457.768 82.9247Z" fill="#16222C"/>
<path d="M456.99 113.473C453.347 114.869 449.372 115.881 445.22 116.47C439.58 117.283 441.969 122.777 447.609 121.964C452.514 121.248 457.209 120.043 461.52 118.395C466.47 116.496 461.959 111.568 456.99 113.473Z" fill="#16222C"/>
<path d="M507.597 97.732C504.367 97.6797 501.176 97.2728 498.164 96.5293C492.793 95.1882 489.46 100.481 494.862 101.829C498.584 102.769 502.533 103.298 506.537 103.39C507.715 103.465 508.893 103.246 509.823 102.781C510.752 102.315 511.361 101.638 511.52 100.893C511.795 99.4494 510.049 97.7772 507.597 97.732Z" fill="#16222C"/>
<path d="M545.048 118.898C544.445 118.246 543.461 117.773 542.31 117.582C541.16 117.39 539.936 117.496 538.908 117.875L531.198 121.051C530.185 121.44 529.45 122.065 529.149 122.793C528.849 123.521 529.006 124.294 529.588 124.95C530.193 125.6 531.177 126.072 532.327 126.263C533.477 126.455 534.699 126.35 535.728 125.972L543.438 122.797C544.451 122.407 545.186 121.782 545.487 121.054C545.787 120.327 545.63 119.553 545.048 118.898Z" fill="#16222C"/>
<path d="M559.254 98.573L554.334 92.2223C553.73 91.5724 552.745 91.1003 551.596 90.9089C550.446 90.7174 549.223 90.8219 548.194 91.1997C547.183 91.5906 546.45 92.2156 546.149 92.9429C545.849 93.6703 546.005 94.4433 546.584 95.0991L551.504 101.45C552.107 102.101 553.092 102.574 554.242 102.766C555.393 102.957 556.616 102.852 557.644 102.472C558.658 102.082 559.393 101.458 559.693 100.73C559.994 100.002 559.836 99.2284 559.254 98.573Z" fill="#16222C"/>
<path d="M598.184 114.328C593.97 114.613 589.889 115.434 586.184 116.741C581.184 118.532 585.654 123.454 590.714 121.657C593.028 120.809 595.578 120.255 598.224 120.025C600.654 119.834 602.714 118.869 602.714 117.173C602.674 115.763 600.614 114.138 598.184 114.328Z" fill="#16222C"/>
<path d="M509.729 58.4391C506.094 58.372 502.486 58.8439 499.189 59.8173C496.949 60.4524 496.459 62.4909 497.579 63.7103C498.929 65.1646 501.479 65.3551 503.719 64.7327C505.619 64.2415 507.673 64.0393 509.719 64.1422C510.912 64.1422 512.057 63.841 512.9 63.3051C513.744 62.7691 514.219 62.0423 514.219 61.2843C514.219 60.5264 513.744 59.7995 512.9 59.2635C512.057 58.7276 510.912 58.4265 509.719 58.4265L509.729 58.4391Z" fill="#16222C"/>
<path d="M623.752 46.3074L621.822 41.4682C621.505 40.7388 620.745 40.1193 619.709 39.746C618.673 39.3726 617.445 39.2759 616.297 39.4772C615.148 39.6785 614.173 40.1612 613.585 40.8192C612.997 41.4772 612.845 42.2566 613.162 42.9859C613.812 44.599 614.452 46.2121 615.102 47.8252C615.241 48.198 615.498 48.5491 615.856 48.8575C616.214 49.166 616.666 49.4254 617.185 49.6204C617.704 49.8154 618.28 49.9419 618.878 49.9924C619.476 50.0429 620.084 50.0164 620.666 49.9143C621.247 49.8123 621.791 49.6368 622.263 49.3985C622.735 49.1601 623.127 48.8639 623.415 48.5272C623.703 48.1905 623.882 47.8204 623.939 47.439C623.997 47.0576 623.933 46.6728 623.752 46.3074Z" fill="#16222C"/>
<path d="M597.213 8.40893L588.123 10.2379C582.633 11.3366 584.983 16.8426 590.513 15.7312L599.603 13.9086C605.093 12.8036 602.743 7.27216 597.213 8.40893Z" fill="#16222C"/>
<path d="M580.945 35.8083C577.764 35.9052 574.581 35.6539 571.535 35.0653C565.975 33.9984 563.625 39.5108 569.145 40.5587C572.967 41.2908 576.956 41.6106 580.945 41.5049C586.715 41.3525 586.735 35.6559 580.945 35.8083Z" fill="#16222C"/>
<path d="M539.567 9.6242C538.42 9.42866 537.198 9.52753 536.165 9.89949C535.132 10.2714 534.371 10.8866 534.047 11.612L532.217 16.3496C532.031 16.7159 531.963 17.1024 532.019 17.4857C532.074 17.869 532.251 18.2413 532.539 18.58C532.827 18.9187 533.22 19.2169 533.694 19.4566C534.169 19.6962 534.715 19.8725 535.299 19.9746C535.883 20.0767 536.494 20.1026 537.095 20.0508C537.695 19.9989 538.273 19.8703 538.794 19.6729C539.314 19.4754 539.766 19.213 540.122 18.9017C540.479 18.5903 540.732 18.2363 540.867 17.8611L542.697 13.1298C543 12.4016 542.841 11.6271 542.257 10.972C541.672 10.3169 540.706 9.83317 539.567 9.6242Z" fill="#16222C"/>
<path d="M458.079 7.27106C455.89 7.27442 453.721 7.0092 451.69 6.48994C449.4 5.94378 446.77 7.08684 446.17 8.48399C445.47 10.0844 447.02 11.4371 449.3 11.9832C452.109 12.6448 455.083 12.9783 458.079 12.9676C463.869 12.974 463.869 7.27106 458.079 7.27106Z" fill="#16222C"/>
<path d="M618.259 80.8771C617.659 79.499 615.019 78.3368 612.739 78.8893L602.309 81.4678C600.029 82.033 598.469 83.373 599.169 84.9734C599.769 86.3578 602.409 87.5137 604.689 86.9675L615.129 84.3827C617.399 83.8493 618.959 82.4902 618.259 80.8771Z" fill="#16222C"/>
<path d="M564.869 57.3381C564.019 56.8143 562.882 56.5214 561.698 56.5214C560.515 56.5214 559.378 56.8143 558.528 57.3381C555.673 58.9035 553.753 61.0449 553.088 63.403C552.678 64.9336 553.688 66.4641 556.218 66.9086C558.398 67.2897 561.329 66.4514 561.739 64.9209C561.849 64.5271 561.988 64.146 562.158 63.7586C562.328 63.3712 562.368 63.3903 562.158 63.6062C562.292 63.4284 562.432 63.2506 562.578 63.0728C562.658 62.9712 563.508 62.1456 563.178 62.4377C563.668 62.0525 564.218 61.6993 564.818 61.3835C566.728 60.3674 566.499 58.3732 564.869 57.3381Z" fill="#16222C"/>
<path d="M496.581 31.3586L492.891 25.5985C491.971 24.1569 489.891 23.1598 487.371 23.6044C485.221 23.979 483.311 25.6683 484.241 27.11L487.931 32.8765C488.851 34.3117 490.931 35.3151 493.451 34.8642C495.601 34.4895 497.501 32.8002 496.581 31.3586Z" fill="#16222C"/>
<path d="M453.67 44.0477C453.06 42.6569 450.43 41.5074 448.15 42.0535C445.385 42.7516 442.461 43.1632 439.49 43.2728C438.305 43.2843 437.173 43.5884 436.335 44.1207C435.497 44.653 435.018 45.3717 435 46.1244C435.008 46.8785 435.484 47.6002 436.324 48.1328C437.165 48.6655 438.303 48.9661 439.49 48.9695C443.252 48.8701 446.964 48.3921 450.49 47.5533C452.81 46.9944 454.36 45.6544 453.67 44.0477Z" fill="#16222C"/>
<path d="M668.768 82.9247C666.595 81.127 664.939 79.0995 663.878 76.9359C662.188 73.4303 653.528 74.9227 655.218 78.4474C656.464 81.0952 658.43 83.5841 661.028 85.8015C662.498 87.0335 664.868 87.7067 667.168 86.824C669.088 86.1064 670.248 84.163 668.768 82.9247Z" fill="#16222C"/>
<path d="M667.99 113.473C664.347 114.869 660.372 115.881 656.22 116.47C650.58 117.283 652.969 122.777 658.609 121.964C663.514 121.248 668.209 120.043 672.52 118.395C677.47 116.496 672.959 111.568 667.99 113.473Z" fill="#16222C"/>
<path d="M718.597 97.732C715.367 97.6797 712.176 97.2728 709.164 96.5293C703.793 95.1882 700.46 100.481 705.862 101.829C709.584 102.769 713.533 103.298 717.537 103.39C718.715 103.465 719.893 103.246 720.823 102.781C721.752 102.315 722.361 101.638 722.52 100.893C722.795 99.4494 721.049 97.7772 718.597 97.732Z" fill="#16222C"/>
<path d="M756.048 118.898C755.445 118.246 754.461 117.773 753.31 117.582C752.16 117.39 750.936 117.496 749.908 117.875L742.198 121.051C741.185 121.44 740.45 122.065 740.149 122.793C739.849 123.521 740.006 124.294 740.588 124.95C741.193 125.6 742.177 126.072 743.327 126.263C744.477 126.455 745.699 126.35 746.728 125.972L754.438 122.797C755.451 122.407 756.186 121.782 756.487 121.054C756.787 120.327 756.63 119.553 756.048 118.898Z" fill="#16222C"/>
<path d="M770.254 98.573L765.334 92.2223C764.73 91.5724 763.745 91.1003 762.596 90.9089C761.446 90.7174 760.223 90.8219 759.194 91.1997C758.183 91.5906 757.45 92.2156 757.149 92.9429C756.849 93.6703 757.005 94.4433 757.584 95.0991L762.504 101.45C763.107 102.101 764.092 102.574 765.242 102.766C766.393 102.957 767.616 102.852 768.644 102.472C769.658 102.082 770.393 101.458 770.693 100.73C770.994 100.002 770.836 99.2284 770.254 98.573Z" fill="#16222C"/>
<path d="M809.184 114.328C804.97 114.613 800.889 115.434 797.184 116.741C792.184 118.532 796.654 123.454 801.714 121.657C804.028 120.809 806.578 120.255 809.224 120.025C811.654 119.834 813.714 118.869 813.714 117.173C813.674 115.763 811.614 114.138 809.184 114.328Z" fill="#16222C"/>
<path d="M720.729 58.4391C717.094 58.372 713.486 58.8439 710.189 59.8173C707.949 60.4524 707.459 62.4909 708.579 63.7103C709.929 65.1646 712.479 65.3551 714.719 64.7327C716.619 64.2415 718.673 64.0393 720.719 64.1422C721.912 64.1422 723.057 63.841 723.9 63.3051C724.744 62.7691 725.219 62.0423 725.219 61.2843C725.219 60.5264 724.744 59.7995 723.9 59.2635C723.057 58.7276 721.912 58.4265 720.719 58.4265L720.729 58.4391Z" fill="#16222C"/>
<path d="M834.752 46.3074L832.822 41.4682C832.505 40.7388 831.745 40.1193 830.709 39.746C829.673 39.3726 828.445 39.2759 827.297 39.4772C826.148 39.6785 825.173 40.1612 824.585 40.8192C823.997 41.4772 823.845 42.2566 824.162 42.9859C824.812 44.599 825.452 46.2121 826.102 47.8252C826.241 48.198 826.498 48.5491 826.856 48.8575C827.214 49.166 827.666 49.4254 828.185 49.6204C828.704 49.8154 829.28 49.9419 829.878 49.9924C830.476 50.0429 831.084 50.0164 831.666 49.9143C832.247 49.8123 832.791 49.6368 833.263 49.3985C833.735 49.1601 834.127 48.8639 834.415 48.5272C834.703 48.1905 834.882 47.8204 834.939 47.439C834.997 47.0576 834.933 46.6728 834.752 46.3074Z" fill="#16222C"/>
<path d="M808.213 8.40893L799.123 10.2379C793.633 11.3366 795.983 16.8426 801.513 15.7312L810.603 13.9086C816.093 12.8036 813.743 7.27216 808.213 8.40893Z" fill="#16222C"/>
<path d="M791.945 35.8083C788.764 35.9052 785.581 35.6539 782.535 35.0653C776.975 33.9984 774.625 39.5108 780.145 40.5587C783.967 41.2908 787.956 41.6106 791.945 41.5049C797.715 41.3525 797.735 35.6559 791.945 35.8083Z" fill="#16222C"/>
<path d="M750.567 9.6242C749.42 9.42866 748.198 9.52753 747.165 9.89949C746.132 10.2714 745.371 10.8866 745.047 11.612L743.217 16.3496C743.031 16.7159 742.963 17.1024 743.019 17.4857C743.074 17.869 743.251 18.2413 743.539 18.58C743.827 18.9187 744.22 19.2169 744.694 19.4566C745.169 19.6962 745.715 19.8725 746.299 19.9746C746.883 20.0767 747.494 20.1026 748.095 20.0508C748.695 19.9989 749.273 19.8703 749.794 19.6729C750.314 19.4754 750.766 19.213 751.122 18.9017C751.479 18.5903 751.732 18.2363 751.867 17.8611L753.697 13.1298C754 12.4016 753.841 11.6271 753.257 10.972C752.672 10.3169 751.706 9.83317 750.567 9.6242Z" fill="#16222C"/>
<path d="M669.079 7.27106C666.89 7.27442 664.721 7.0092 662.69 6.48994C660.4 5.94378 657.77 7.08684 657.17 8.48399C656.47 10.0844 658.02 11.4371 660.3 11.9832C663.109 12.6448 666.083 12.9783 669.079 12.9676C674.869 12.974 674.869 7.27106 669.079 7.27106Z" fill="#16222C"/>
<path d="M829.259 80.8771C828.659 79.499 826.019 78.3368 823.739 78.8893L813.309 81.4678C811.029 82.033 809.469 83.373 810.169 84.9734C810.769 86.3578 813.409 87.5137 815.689 86.9675L826.129 84.3827C828.399 83.8493 829.959 82.4902 829.259 80.8771Z" fill="#16222C"/>
<path d="M775.869 57.3381C775.019 56.8143 773.882 56.5214 772.698 56.5214C771.515 56.5214 770.378 56.8143 769.528 57.3381C766.673 58.9035 764.753 61.0449 764.088 63.403C763.678 64.9336 764.688 66.4641 767.218 66.9086C769.398 67.2897 772.329 66.4514 772.739 64.9209C772.849 64.5271 772.988 64.146 773.158 63.7586C773.328 63.3712 773.368 63.3903 773.158 63.6062C773.292 63.4284 773.432 63.2506 773.578 63.0728C773.658 62.9712 774.508 62.1456 774.178 62.4377C774.668 62.0525 775.218 61.6993 775.818 61.3835C777.728 60.3674 777.499 58.3732 775.869 57.3381Z" fill="#16222C"/>
<path d="M707.581 31.3586L703.891 25.5985C702.971 24.1569 700.891 23.1598 698.371 23.6044C696.221 23.979 694.311 25.6683 695.241 27.11L698.931 32.8765C699.851 34.3117 701.931 35.3151 704.451 34.8642C706.601 34.4895 708.501 32.8002 707.581 31.3586Z" fill="#16222C"/>
<path d="M664.67 44.0477C664.06 42.6569 661.43 41.5074 659.15 42.0535C656.385 42.7516 653.461 43.1632 650.49 43.2728C649.305 43.2843 648.173 43.5884 647.335 44.1207C646.497 44.653 646.018 45.3717 646 46.1244C646.008 46.8785 646.484 47.6002 647.324 48.1328C648.165 48.6655 649.303 48.9661 650.49 48.9695C654.252 48.8701 657.964 48.3921 661.49 47.5533C663.81 46.9944 665.36 45.6544 664.67 44.0477Z" fill="#16222C"/>
<path d="M879.768 82.9247C877.595 81.127 875.939 79.0995 874.878 76.9359C873.188 73.4303 864.528 74.9227 866.218 78.4474C867.464 81.0952 869.43 83.5841 872.028 85.8015C873.498 87.0335 875.868 87.7067 878.168 86.824C880.088 86.1064 881.248 84.163 879.768 82.9247Z" fill="#16222C"/>
<path d="M878.99 113.473C875.347 114.869 871.372 115.881 867.22 116.47C861.58 117.283 863.969 122.777 869.609 121.964C874.514 121.248 879.209 120.043 883.52 118.395C888.47 116.496 883.959 111.568 878.99 113.473Z" fill="#16222C"/>
<path d="M929.597 97.732C926.367 97.6797 923.176 97.2728 920.164 96.5293C914.793 95.1882 911.46 100.481 916.862 101.829C920.584 102.769 924.533 103.298 928.537 103.39C929.715 103.465 930.893 103.246 931.823 102.781C932.752 102.315 933.361 101.638 933.52 100.893C933.795 99.4494 932.049 97.7772 929.597 97.732Z" fill="#16222C"/>
<path d="M967.048 118.898C966.445 118.246 965.461 117.773 964.31 117.582C963.16 117.39 961.936 117.496 960.908 117.875L953.198 121.051C952.185 121.44 951.45 122.065 951.149 122.793C950.849 123.521 951.006 124.294 951.588 124.95C952.193 125.6 953.177 126.072 954.327 126.263C955.477 126.455 956.699 126.35 957.728 125.972L965.438 122.797C966.451 122.407 967.186 121.782 967.487 121.054C967.787 120.327 967.63 119.553 967.048 118.898Z" fill="#16222C"/>
<path d="M981.254 98.573L976.334 92.2223C975.73 91.5724 974.745 91.1003 973.596 90.9089C972.446 90.7174 971.223 90.8219 970.194 91.1997C969.183 91.5906 968.45 92.2156 968.149 92.9429C967.849 93.6703 968.005 94.4433 968.584 95.0991L973.504 101.45C974.107 102.101 975.092 102.574 976.242 102.766C977.393 102.957 978.616 102.852 979.644 102.472C980.658 102.082 981.393 101.458 981.693 100.73C981.994 100.002 981.836 99.2284 981.254 98.573Z" fill="#16222C"/>
<path d="M1020.18 114.328C1015.97 114.613 1011.89 115.434 1008.18 116.741C1003.18 118.532 1007.65 123.454 1012.71 121.657C1015.03 120.809 1017.58 120.255 1020.22 120.025C1022.65 119.834 1024.71 118.869 1024.71 117.173C1024.67 115.763 1022.61 114.138 1020.18 114.328Z" fill="#16222C"/>
<path d="M931.729 58.4391C928.094 58.372 924.486 58.8439 921.189 59.8173C918.949 60.4524 918.459 62.4909 919.579 63.7103C920.929 65.1646 923.479 65.3551 925.719 64.7327C927.619 64.2415 929.673 64.0393 931.719 64.1422C932.912 64.1422 934.057 63.841 934.9 63.3051C935.744 62.7691 936.219 62.0423 936.219 61.2843C936.219 60.5264 935.744 59.7995 934.9 59.2635C934.057 58.7276 932.912 58.4265 931.719 58.4265L931.729 58.4391Z" fill="#16222C"/>
<path d="M1045.75 46.3074L1043.82 41.4682C1043.5 40.7388 1042.74 40.1193 1041.71 39.746C1040.67 39.3726 1039.45 39.2759 1038.3 39.4772C1037.15 39.6785 1036.17 40.1612 1035.59 40.8192C1035 41.4772 1034.84 42.2566 1035.16 42.9859C1035.81 44.599 1036.45 46.2121 1037.1 47.8252C1037.24 48.198 1037.5 48.5491 1037.86 48.8575C1038.21 49.166 1038.67 49.4254 1039.19 49.6204C1039.7 49.8154 1040.28 49.9419 1040.88 49.9924C1041.48 50.0429 1042.08 50.0164 1042.67 49.9143C1043.25 49.8123 1043.79 49.6368 1044.26 49.3985C1044.74 49.1601 1045.13 48.8639 1045.42 48.5272C1045.7 48.1905 1045.88 47.8204 1045.94 47.439C1046 47.0576 1045.93 46.6728 1045.75 46.3074Z" fill="#16222C"/>
<path d="M1019.21 8.40893L1010.12 10.2379C1004.63 11.3366 1006.98 16.8426 1012.51 15.7312L1021.6 13.9086C1027.09 12.8036 1024.74 7.27216 1019.21 8.40893Z" fill="#16222C"/>
<path d="M1002.94 35.8083C999.764 35.9052 996.581 35.6539 993.535 35.0653C987.975 33.9984 985.625 39.5108 991.145 40.5587C994.967 41.2908 998.956 41.6106 1002.94 41.5049C1008.71 41.3525 1008.73 35.6559 1002.94 35.8083Z" fill="#16222C"/>
<path d="M961.567 9.6242C960.42 9.42866 959.198 9.52753 958.165 9.89949C957.132 10.2714 956.371 10.8866 956.047 11.612L954.217 16.3496C954.031 16.7159 953.963 17.1024 954.019 17.4857C954.074 17.869 954.251 18.2413 954.539 18.58C954.827 18.9187 955.22 19.2169 955.694 19.4566C956.169 19.6962 956.715 19.8725 957.299 19.9746C957.883 20.0767 958.494 20.1026 959.095 20.0508C959.695 19.9989 960.273 19.8703 960.794 19.6729C961.314 19.4754 961.766 19.213 962.122 18.9017C962.479 18.5903 962.732 18.2363 962.867 17.8611L964.697 13.1298C965 12.4016 964.841 11.6271 964.257 10.972C963.672 10.3169 962.706 9.83317 961.567 9.6242Z" fill="#16222C"/>
<path d="M880.079 7.27106C877.89 7.27442 875.721 7.0092 873.69 6.48994C871.4 5.94378 868.77 7.08684 868.17 8.48399C867.47 10.0844 869.02 11.4371 871.3 11.9832C874.109 12.6448 877.083 12.9783 880.079 12.9676C885.869 12.974 885.869 7.27106 880.079 7.27106Z" fill="#16222C"/>
<path d="M1040.26 80.8771C1039.66 79.499 1037.02 78.3368 1034.74 78.8893L1024.31 81.4678C1022.03 82.033 1020.47 83.373 1021.17 84.9734C1021.77 86.3578 1024.41 87.5137 1026.69 86.9675L1037.13 84.3827C1039.4 83.8493 1040.96 82.4902 1040.26 80.8771Z" fill="#16222C"/>
<path d="M986.869 57.3381C986.019 56.8143 984.882 56.5214 983.698 56.5214C982.515 56.5214 981.378 56.8143 980.528 57.3381C977.673 58.9035 975.753 61.0449 975.088 63.403C974.678 64.9336 975.688 66.4641 978.218 66.9086C980.398 67.2897 983.329 66.4514 983.739 64.9209C983.849 64.5271 983.988 64.146 984.158 63.7586C984.328 63.3712 984.368 63.3903 984.158 63.6062C984.292 63.4284 984.432 63.2506 984.578 63.0728C984.658 62.9712 985.508 62.1456 985.178 62.4377C985.668 62.0525 986.218 61.6993 986.818 61.3835C988.728 60.3674 988.499 58.3732 986.869 57.3381Z" fill="#16222C"/>
<path d="M918.581 31.3586L914.891 25.5985C913.971 24.1569 911.891 23.1598 909.371 23.6044C907.221 23.979 905.311 25.6683 906.241 27.11L909.931 32.8765C910.851 34.3117 912.931 35.3151 915.451 34.8642C917.601 34.4895 919.501 32.8002 918.581 31.3586Z" fill="#16222C"/>
<path d="M875.67 44.0477C875.06 42.6569 872.43 41.5074 870.15 42.0535C867.385 42.7516 864.461 43.1632 861.49 43.2728C860.305 43.2843 859.173 43.5884 858.335 44.1207C857.497 44.653 857.018 45.3717 857 46.1244C857.008 46.8785 857.484 47.6002 858.324 48.1328C859.165 48.6655 860.303 48.9661 861.49 48.9695C865.252 48.8701 868.964 48.3921 872.49 47.5533C874.81 46.9944 876.36 45.6544 875.67 44.0477Z" fill="#16222C"/>
<path d="M1090.77 82.9247C1088.59 81.127 1086.94 79.0995 1085.88 76.9359C1084.19 73.4303 1075.53 74.9227 1077.22 78.4474C1078.46 81.0952 1080.43 83.5841 1083.03 85.8015C1084.5 87.0335 1086.87 87.7067 1089.17 86.824C1091.09 86.1064 1092.25 84.163 1090.77 82.9247Z" fill="#16222C"/>
<path d="M1089.99 113.473C1086.35 114.869 1082.37 115.881 1078.22 116.47C1072.58 117.283 1074.97 122.777 1080.61 121.964C1085.51 121.248 1090.21 120.043 1094.52 118.395C1099.47 116.496 1094.96 111.568 1089.99 113.473Z" fill="#16222C"/>
<path d="M1140.6 97.732C1137.37 97.6797 1134.18 97.2728 1131.16 96.5293C1125.79 95.1882 1122.46 100.481 1127.86 101.829C1131.58 102.769 1135.53 103.298 1139.54 103.39C1140.72 103.465 1141.89 103.246 1142.82 102.781C1143.75 102.315 1144.36 101.638 1144.52 100.893C1144.8 99.4494 1143.05 97.7772 1140.6 97.732Z" fill="#16222C"/>
<path d="M1178.05 118.898C1177.45 118.246 1176.46 117.773 1175.31 117.582C1174.16 117.39 1172.94 117.496 1171.91 117.875L1164.2 121.051C1163.18 121.44 1162.45 122.065 1162.15 122.793C1161.85 123.521 1162.01 124.294 1162.59 124.95C1163.19 125.6 1164.18 126.072 1165.33 126.263C1166.48 126.455 1167.7 126.35 1168.73 125.972L1176.44 122.797C1177.45 122.407 1178.19 121.782 1178.49 121.054C1178.79 120.327 1178.63 119.553 1178.05 118.898Z" fill="#16222C"/>
<path d="M1192.25 98.573L1187.33 92.2223C1186.73 91.5724 1185.75 91.1003 1184.6 90.9089C1183.45 90.7174 1182.22 90.8219 1181.19 91.1997C1180.18 91.5906 1179.45 92.2156 1179.15 92.9429C1178.85 93.6703 1179.01 94.4433 1179.58 95.0991L1184.5 101.45C1185.11 102.101 1186.09 102.574 1187.24 102.766C1188.39 102.957 1189.62 102.852 1190.64 102.472C1191.66 102.082 1192.39 101.458 1192.69 100.73C1192.99 100.002 1192.84 99.2284 1192.25 98.573Z" fill="#16222C"/>
<path d="M1231.18 114.328C1226.97 114.613 1222.89 115.434 1219.18 116.741C1214.18 118.532 1218.65 123.454 1223.71 121.657C1226.03 120.809 1228.58 120.255 1231.22 120.025C1233.65 119.834 1235.71 118.869 1235.71 117.173C1235.67 115.763 1233.61 114.138 1231.18 114.328Z" fill="#16222C"/>
<path d="M1142.73 58.4391C1139.09 58.372 1135.49 58.8439 1132.19 59.8173C1129.95 60.4524 1129.46 62.4909 1130.58 63.7103C1131.93 65.1646 1134.48 65.3551 1136.72 64.7327C1138.62 64.2415 1140.67 64.0393 1142.72 64.1422C1143.91 64.1422 1145.06 63.841 1145.9 63.3051C1146.74 62.7691 1147.22 62.0423 1147.22 61.2843C1147.22 60.5264 1146.74 59.7995 1145.9 59.2635C1145.06 58.7276 1143.91 58.4265 1142.72 58.4265L1142.73 58.4391Z" fill="#16222C"/>
<path d="M1256.75 46.3074L1254.82 41.4682C1254.5 40.7388 1253.74 40.1193 1252.71 39.746C1251.67 39.3726 1250.45 39.2759 1249.3 39.4772C1248.15 39.6785 1247.17 40.1612 1246.59 40.8192C1246 41.4772 1245.84 42.2566 1246.16 42.9859C1246.81 44.599 1247.45 46.2121 1248.1 47.8252C1248.24 48.198 1248.5 48.5491 1248.86 48.8575C1249.21 49.166 1249.67 49.4254 1250.19 49.6204C1250.7 49.8154 1251.28 49.9419 1251.88 49.9924C1252.48 50.0429 1253.08 50.0164 1253.67 49.9143C1254.25 49.8123 1254.79 49.6368 1255.26 49.3985C1255.74 49.1601 1256.13 48.8639 1256.42 48.5272C1256.7 48.1905 1256.88 47.8204 1256.94 47.439C1257 47.0576 1256.93 46.6728 1256.75 46.3074Z" fill="#16222C"/>
<path d="M1230.21 8.40893L1221.12 10.2379C1215.63 11.3366 1217.98 16.8426 1223.51 15.7312L1232.6 13.9086C1238.09 12.8036 1235.74 7.27216 1230.21 8.40893Z" fill="#16222C"/>
<path d="M1213.94 35.8083C1210.76 35.9052 1207.58 35.6539 1204.53 35.0653C1198.97 33.9984 1196.62 39.5108 1202.14 40.5587C1205.97 41.2908 1209.96 41.6106 1213.94 41.5049C1219.71 41.3525 1219.73 35.6559 1213.94 35.8083Z" fill="#16222C"/>
<path d="M1172.57 9.6242C1171.42 9.42866 1170.2 9.52753 1169.17 9.89949C1168.13 10.2714 1167.37 10.8866 1167.05 11.612L1165.22 16.3496C1165.03 16.7159 1164.96 17.1024 1165.02 17.4857C1165.07 17.869 1165.25 18.2413 1165.54 18.58C1165.83 18.9187 1166.22 19.2169 1166.69 19.4566C1167.17 19.6962 1167.71 19.8725 1168.3 19.9746C1168.88 20.0767 1169.49 20.1026 1170.09 20.0508C1170.7 19.9989 1171.27 19.8703 1171.79 19.6729C1172.31 19.4754 1172.77 19.213 1173.12 18.9017C1173.48 18.5903 1173.73 18.2363 1173.87 17.8611L1175.7 13.1298C1176 12.4016 1175.84 11.6271 1175.26 10.972C1174.67 10.3169 1173.71 9.83317 1172.57 9.6242Z" fill="#16222C"/>
<path d="M1091.08 7.27106C1088.89 7.27442 1086.72 7.0092 1084.69 6.48994C1082.4 5.94378 1079.77 7.08684 1079.17 8.48399C1078.47 10.0844 1080.02 11.4371 1082.3 11.9832C1085.11 12.6448 1088.08 12.9783 1091.08 12.9676C1096.87 12.974 1096.87 7.27106 1091.08 7.27106Z" fill="#16222C"/>
<path d="M1251.26 80.8771C1250.66 79.499 1248.02 78.3368 1245.74 78.8893L1235.31 81.4678C1233.03 82.033 1231.47 83.373 1232.17 84.9734C1232.77 86.3578 1235.41 87.5137 1237.69 86.9675L1248.13 84.3827C1250.4 83.8493 1251.96 82.4902 1251.26 80.8771Z" fill="#16222C"/>
<path d="M1197.87 57.3381C1197.02 56.8143 1195.88 56.5214 1194.7 56.5214C1193.51 56.5214 1192.38 56.8143 1191.53 57.3381C1188.67 58.9035 1186.75 61.0449 1186.09 63.403C1185.68 64.9336 1186.69 66.4641 1189.22 66.9086C1191.4 67.2897 1194.33 66.4514 1194.74 64.9209C1194.85 64.5271 1194.99 64.146 1195.16 63.7586C1195.33 63.3712 1195.37 63.3903 1195.16 63.6062C1195.29 63.4284 1195.43 63.2506 1195.58 63.0728C1195.66 62.9712 1196.51 62.1456 1196.18 62.4377C1196.67 62.0525 1197.22 61.6993 1197.82 61.3835C1199.73 60.3674 1199.5 58.3732 1197.87 57.3381Z" fill="#16222C"/>
<path d="M1129.58 31.3586L1125.89 25.5985C1124.97 24.1569 1122.89 23.1598 1120.37 23.6044C1118.22 23.979 1116.31 25.6683 1117.24 27.11L1120.93 32.8765C1121.85 34.3117 1123.93 35.3151 1126.45 34.8642C1128.6 34.4895 1130.5 32.8002 1129.58 31.3586Z" fill="#16222C"/>
<path d="M1086.67 44.0477C1086.06 42.6569 1083.43 41.5074 1081.15 42.0535C1078.38 42.7516 1075.46 43.1632 1072.49 43.2728C1071.3 43.2843 1070.17 43.5884 1069.34 44.1207C1068.5 44.653 1068.02 45.3717 1068 46.1244C1068.01 46.8785 1068.48 47.6002 1069.32 48.1328C1070.17 48.6655 1071.3 48.9661 1072.49 48.9695C1076.25 48.8701 1079.96 48.3921 1083.49 47.5533C1085.81 46.9944 1087.36 45.6544 1086.67 44.0477Z" fill="#16222C"/>
<path d="M1301.77 82.9247C1299.59 81.127 1297.94 79.0995 1296.88 76.9359C1295.19 73.4303 1286.53 74.9227 1288.22 78.4474C1289.46 81.0952 1291.43 83.5841 1294.03 85.8015C1295.5 87.0335 1297.87 87.7067 1300.17 86.824C1302.09 86.1064 1303.25 84.163 1301.77 82.9247Z" fill="#16222C"/>
<path d="M1300.99 113.473C1297.35 114.869 1293.37 115.881 1289.22 116.47C1283.58 117.283 1285.97 122.777 1291.61 121.964C1296.51 121.248 1301.21 120.043 1305.52 118.395C1310.47 116.496 1305.96 111.568 1300.99 113.473Z" fill="#16222C"/>
<path d="M1351.6 97.732C1348.37 97.6797 1345.18 97.2728 1342.16 96.5293C1336.79 95.1882 1333.46 100.481 1338.86 101.829C1342.58 102.769 1346.53 103.298 1350.54 103.39C1351.72 103.465 1352.89 103.246 1353.82 102.781C1354.75 102.315 1355.36 101.638 1355.52 100.893C1355.8 99.4494 1354.05 97.7772 1351.6 97.732Z" fill="#16222C"/>
<path d="M1389.05 118.898C1388.45 118.246 1387.46 117.773 1386.31 117.582C1385.16 117.39 1383.94 117.496 1382.91 117.875L1375.2 121.051C1374.18 121.44 1373.45 122.065 1373.15 122.793C1372.85 123.521 1373.01 124.294 1373.59 124.95C1374.19 125.6 1375.18 126.072 1376.33 126.263C1377.48 126.455 1378.7 126.35 1379.73 125.972L1387.44 122.797C1388.45 122.407 1389.19 121.782 1389.49 121.054C1389.79 120.327 1389.63 119.553 1389.05 118.898Z" fill="#16222C"/>
<path d="M1403.25 98.573L1398.33 92.2223C1397.73 91.5724 1396.75 91.1003 1395.6 90.9089C1394.45 90.7174 1393.22 90.8219 1392.19 91.1997C1391.18 91.5906 1390.45 92.2156 1390.15 92.9429C1389.85 93.6703 1390.01 94.4433 1390.58 95.0991L1395.5 101.45C1396.11 102.101 1397.09 102.574 1398.24 102.766C1399.39 102.957 1400.62 102.852 1401.64 102.472C1402.66 102.082 1403.39 101.458 1403.69 100.73C1403.99 100.002 1403.84 99.2284 1403.25 98.573Z" fill="#16222C"/>
<path d="M1442.18 114.328C1437.97 114.613 1433.89 115.434 1430.18 116.741C1425.18 118.532 1429.65 123.454 1434.71 121.657C1437.03 120.809 1439.58 120.255 1442.22 120.025C1444.65 119.834 1446.71 118.869 1446.71 117.173C1446.67 115.763 1444.61 114.138 1442.18 114.328Z" fill="#16222C"/>
<path d="M1353.73 58.4391C1350.09 58.372 1346.49 58.8439 1343.19 59.8173C1340.95 60.4524 1340.46 62.4909 1341.58 63.7103C1342.93 65.1646 1345.48 65.3551 1347.72 64.7327C1349.62 64.2415 1351.67 64.0393 1353.72 64.1422C1354.91 64.1422 1356.06 63.841 1356.9 63.3051C1357.74 62.7691 1358.22 62.0423 1358.22 61.2843C1358.22 60.5264 1357.74 59.7995 1356.9 59.2635C1356.06 58.7276 1354.91 58.4265 1353.72 58.4265L1353.73 58.4391Z" fill="#16222C"/>
<path d="M1467.75 46.3074L1465.82 41.4682C1465.5 40.7388 1464.74 40.1193 1463.71 39.746C1462.67 39.3726 1461.45 39.2759 1460.3 39.4772C1459.15 39.6785 1458.17 40.1612 1457.59 40.8192C1457 41.4772 1456.84 42.2566 1457.16 42.9859C1457.81 44.599 1458.45 46.2121 1459.1 47.8252C1459.24 48.198 1459.5 48.5491 1459.86 48.8575C1460.21 49.166 1460.67 49.4254 1461.19 49.6204C1461.7 49.8154 1462.28 49.9419 1462.88 49.9924C1463.48 50.0429 1464.08 50.0164 1464.67 49.9143C1465.25 49.8123 1465.79 49.6368 1466.26 49.3985C1466.74 49.1601 1467.13 48.8639 1467.42 48.5272C1467.7 48.1905 1467.88 47.8204 1467.94 47.439C1468 47.0576 1467.93 46.6728 1467.75 46.3074Z" fill="#16222C"/>
<path d="M1441.21 8.40893L1432.12 10.2379C1426.63 11.3366 1428.98 16.8426 1434.51 15.7312L1443.6 13.9086C1449.09 12.8036 1446.74 7.27216 1441.21 8.40893Z" fill="#16222C"/>
<path d="M1424.94 35.8083C1421.76 35.9052 1418.58 35.6539 1415.53 35.0653C1409.97 33.9984 1407.62 39.5108 1413.14 40.5587C1416.97 41.2908 1420.96 41.6106 1424.94 41.5049C1430.71 41.3525 1430.73 35.6559 1424.94 35.8083Z" fill="#16222C"/>
<path d="M1383.57 9.6242C1382.42 9.42866 1381.2 9.52753 1380.17 9.89949C1379.13 10.2714 1378.37 10.8866 1378.05 11.612L1376.22 16.3496C1376.03 16.7159 1375.96 17.1024 1376.02 17.4857C1376.07 17.869 1376.25 18.2413 1376.54 18.58C1376.83 18.9187 1377.22 19.2169 1377.69 19.4566C1378.17 19.6962 1378.71 19.8725 1379.3 19.9746C1379.88 20.0767 1380.49 20.1026 1381.09 20.0508C1381.7 19.9989 1382.27 19.8703 1382.79 19.6729C1383.31 19.4754 1383.77 19.213 1384.12 18.9017C1384.48 18.5903 1384.73 18.2363 1384.87 17.8611L1386.7 13.1298C1387 12.4016 1386.84 11.6271 1386.26 10.972C1385.67 10.3169 1384.71 9.83317 1383.57 9.6242Z" fill="#16222C"/>
<path d="M1302.08 7.27106C1299.89 7.27442 1297.72 7.0092 1295.69 6.48994C1293.4 5.94378 1290.77 7.08684 1290.17 8.48399C1289.47 10.0844 1291.02 11.4371 1293.3 11.9832C1296.11 12.6448 1299.08 12.9783 1302.08 12.9676C1307.87 12.974 1307.87 7.27106 1302.08 7.27106Z" fill="#16222C"/>
<path d="M1462.26 80.8771C1461.66 79.499 1459.02 78.3368 1456.74 78.8893L1446.31 81.4678C1444.03 82.033 1442.47 83.373 1443.17 84.9734C1443.77 86.3578 1446.41 87.5137 1448.69 86.9675L1459.13 84.3827C1461.4 83.8493 1462.96 82.4902 1462.26 80.8771Z" fill="#16222C"/>
<path d="M1408.87 57.3381C1408.02 56.8143 1406.88 56.5214 1405.7 56.5214C1404.51 56.5214 1403.38 56.8143 1402.53 57.3381C1399.67 58.9035 1397.75 61.0449 1397.09 63.403C1396.68 64.9336 1397.69 66.4641 1400.22 66.9086C1402.4 67.2897 1405.33 66.4514 1405.74 64.9209C1405.85 64.5271 1405.99 64.146 1406.16 63.7586C1406.33 63.3712 1406.37 63.3903 1406.16 63.6062C1406.29 63.4284 1406.43 63.2506 1406.58 63.0728C1406.66 62.9712 1407.51 62.1456 1407.18 62.4377C1407.67 62.0525 1408.22 61.6993 1408.82 61.3835C1410.73 60.3674 1410.5 58.3732 1408.87 57.3381Z" fill="#16222C"/>
<path d="M1340.58 31.3586L1336.89 25.5985C1335.97 24.1569 1333.89 23.1598 1331.37 23.6044C1329.22 23.979 1327.31 25.6683 1328.24 27.11L1331.93 32.8765C1332.85 34.3117 1334.93 35.3151 1337.45 34.8642C1339.6 34.4895 1341.5 32.8002 1340.58 31.3586Z" fill="#16222C"/>
<path d="M1297.67 44.0477C1297.06 42.6569 1294.43 41.5074 1292.15 42.0535C1289.38 42.7516 1286.46 43.1632 1283.49 43.2728C1282.3 43.2843 1281.17 43.5884 1280.34 44.1207C1279.5 44.653 1279.02 45.3717 1279 46.1244C1279.01 46.8785 1279.48 47.6002 1280.32 48.1328C1281.17 48.6655 1282.3 48.9661 1283.49 48.9695C1287.25 48.8701 1290.96 48.3921 1294.49 47.5533C1296.81 46.9944 1298.36 45.6544 1297.67 44.0477Z" fill="#16222C"/>
</svg>
