<svg width="860" height="78" viewBox="0 0 860 78" fill="none" xmlns="http://www.w3.org/2000/svg">
<path d="M20.8196 48.2696C19.5548 47.2232 18.5911 46.043 17.9732 44.7836C16.9895 42.743 11.9485 43.6118 12.9323 45.6634C13.6578 47.2047 14.8024 48.6534 16.3142 49.9442C17.1699 50.6613 18.5495 51.0532 19.8883 50.5394C21.0059 50.1216 21.6811 48.9904 20.8196 48.2696Z" fill="white"/>
<path d="M20.3668 66.0515C18.2463 66.8641 15.9327 67.4533 13.5157 67.7963C10.2327 68.2694 11.6238 71.4671 14.9068 70.9939C17.7616 70.5772 20.4944 69.876 23.0037 68.9164C25.8851 67.8111 23.2598 64.9424 20.3668 66.0515Z" fill="white"/>
<path d="M49.8249 56.8888C47.9449 56.8584 46.0873 56.6215 44.3344 56.1887C41.2075 55.4081 39.2677 58.489 42.4121 59.2734C44.5787 59.8211 46.8774 60.1285 49.2079 60.1821C49.8937 60.2257 50.5793 60.0986 51.1204 59.8275C51.6615 59.5564 52.0159 59.1625 52.1087 58.7288C52.2686 57.8885 51.2521 56.9151 49.8249 56.8888Z" fill="white"/>
<path d="M71.6245 69.209C71.2736 68.83 70.7006 68.5546 70.0309 68.4431C69.3612 68.3315 68.6491 68.393 68.0505 68.6139L63.5626 70.4622C62.9727 70.6891 62.5449 71.0529 62.37 71.4765C62.1951 71.9002 62.2867 72.3505 62.6254 72.732C62.9774 73.1103 63.5504 73.385 64.2197 73.4965C64.8889 73.6079 65.6004 73.5471 66.1994 73.3271L70.6874 71.4788C71.2773 71.2519 71.705 70.8881 71.8799 70.4645C72.0548 70.0408 71.9632 69.5906 71.6245 69.209V69.209Z" fill="white"/>
<path d="M79.894 57.3783L77.0301 53.6816C76.6781 53.3033 76.1051 53.0285 75.4359 52.9171C74.7666 52.8056 74.055 52.8665 73.456 53.0864C72.8673 53.3139 72.4405 53.6777 72.2657 54.1011C72.0909 54.5245 72.1817 54.9744 72.5189 55.3562L75.3828 59.0528C75.7337 59.4319 76.3067 59.7073 76.9764 59.8188C77.6462 59.9303 78.3582 59.8689 78.9568 59.648C79.5467 59.4211 79.9744 59.0574 80.1494 58.6337C80.3243 58.2101 80.2327 57.7598 79.894 57.3783V57.3783Z" fill="white"/>
<path d="M102.555 66.5492C100.102 66.7152 97.7268 67.1929 95.5703 67.9539C92.6599 68.9964 95.2618 71.8613 98.2072 70.8151C99.5538 70.3217 101.038 69.9991 102.579 69.8651C103.993 69.7542 105.192 69.1923 105.192 68.2053C105.169 67.3846 103.97 66.4383 102.555 66.5492Z" fill="white"/>
<path d="M51.0654 34.0169C48.95 33.9778 46.8493 34.2525 44.9302 34.8191C43.6263 35.1887 43.3411 36.3754 43.993 37.0851C44.7789 37.9317 46.2632 38.0426 47.5671 37.6803C48.6731 37.3944 49.8692 37.2767 51.0596 37.3365C51.7543 37.3365 52.4205 37.1612 52.9118 36.8493C53.403 36.5373 53.679 36.1142 53.679 35.673C53.679 35.2318 53.403 34.8087 52.9118 34.4967C52.4205 34.1848 51.7543 34.0095 51.0596 34.0095L51.0654 34.0169Z" fill="white"/>
<path d="M117.437 26.9551L116.314 24.1382C116.129 23.7137 115.687 23.3531 115.084 23.1357C114.481 22.9184 113.766 22.8621 113.098 22.9793C112.429 23.0964 111.862 23.3774 111.519 23.7604C111.177 24.1435 111.088 24.5971 111.273 25.0217C111.651 25.9606 112.024 26.8996 112.402 27.8386C112.483 28.0556 112.633 28.2599 112.841 28.4395C113.049 28.619 113.312 28.77 113.615 28.8835C113.917 28.9971 114.252 29.0707 114.6 29.1001C114.949 29.1295 115.302 29.114 115.641 29.0546C115.979 28.9952 116.296 28.8931 116.571 28.7544C116.846 28.6156 117.074 28.4432 117.241 28.2472C117.409 28.0512 117.513 27.8358 117.546 27.6138C117.58 27.3918 117.543 27.1677 117.437 26.9551V26.9551Z" fill="white"/>
<path d="M101.99 4.89477L96.6988 5.95941C93.5032 6.59894 94.8711 9.80393 98.09 9.15701L103.381 8.09606C106.577 7.45284 105.209 4.23306 101.99 4.89477Z" fill="white"/>
<path d="M92.5205 20.8436C90.6691 20.9 88.8162 20.7538 87.043 20.4112C83.8066 19.7901 82.4387 22.9988 85.6518 23.6088C87.8768 24.0349 90.1985 24.2211 92.5205 24.1596C95.8791 24.0709 95.8908 20.7549 92.5205 20.8436Z" fill="white"/>
<path d="M68.434 5.60221C67.7664 5.48838 67.0552 5.54594 66.4539 5.76245C65.8527 5.97896 65.4097 6.33704 65.2208 6.75927L64.1556 9.51698C64.0473 9.73022 64.008 9.95517 64.0402 10.1783C64.0724 10.4014 64.1755 10.6181 64.3431 10.8153C64.5108 11.0125 64.7395 11.186 65.0156 11.3255C65.2917 11.465 65.6094 11.5676 65.9496 11.6271C66.2897 11.6865 66.6453 11.7016 66.9949 11.6714C67.3445 11.6412 67.6809 11.5664 67.9837 11.4514C68.2866 11.3365 68.5497 11.1838 68.7571 11.0025C68.9645 10.8213 69.112 10.6152 69.1907 10.3968L70.2559 7.64278C70.432 7.21892 70.34 6.76809 69.9995 6.38676C69.6591 6.00543 69.0971 5.72385 68.434 5.60221V5.60221Z" fill="white"/>
<path d="M21.0011 4.23251C19.7267 4.23446 18.4638 4.08008 17.2816 3.77782C15.9486 3.45991 14.4177 4.12527 14.0684 4.93854C13.661 5.8701 14.5632 6.6575 15.8904 6.97542C17.5256 7.36052 19.257 7.55466 21.0011 7.54842C24.3714 7.55212 24.3714 4.23251 21.0011 4.23251Z" fill="white"/>
<path d="M114.24 47.0778C113.89 46.2756 112.354 45.5991 111.026 45.9207L104.955 47.4216C103.628 47.7506 102.72 48.5306 103.128 49.4621C103.477 50.268 105.014 50.9408 106.341 50.6229L112.418 49.1183C113.739 48.8078 114.647 48.0167 114.24 47.0778Z" fill="white"/>
<path d="M83.1624 33.3759C82.6682 33.071 82.0062 32.9005 81.3172 32.9005C80.6282 32.9005 79.9662 33.071 79.4719 33.3759C77.8099 34.2871 76.6919 35.5336 76.3054 36.9063C76.0668 37.7972 76.6547 38.6881 78.1274 38.9468C79.3963 39.1686 81.1018 38.6807 81.3405 37.7898C81.4045 37.5606 81.486 37.3387 81.5849 37.1133C81.6839 36.8878 81.7072 36.8988 81.5849 37.0245C81.6625 36.921 81.7441 36.8175 81.8294 36.714C81.876 36.6549 82.3708 36.1743 82.1787 36.3444C82.4639 36.1201 82.7837 35.9145 83.1333 35.7307C84.2451 35.1392 84.1113 33.9785 83.1624 33.3759Z" fill="white"/>
<path d="M43.4133 18.2536L41.2654 14.9007C40.7299 14.0615 39.5191 13.4811 38.0523 13.7399C36.8008 13.958 35.689 14.9413 36.2303 15.7805L38.3783 19.1371C38.9138 19.9725 40.1245 20.5566 41.5913 20.2942C42.8428 20.0761 43.9488 19.0927 43.4133 18.2536Z" fill="white"/>
<path d="M18.435 25.6397C18.0799 24.8301 16.549 24.161 15.2219 24.479C13.6122 24.8853 11.9102 25.1249 10.181 25.1887C9.49107 25.1954 8.8324 25.3724 8.34452 25.6822C7.85664 25.9921 7.57789 26.4104 7.56738 26.8485C7.57197 27.2875 7.84902 27.7076 8.33834 28.0177C8.82765 28.3277 9.48974 28.5027 10.181 28.5046C12.3705 28.4468 14.5318 28.1685 16.5839 27.6803C17.9344 27.355 18.8367 26.575 18.435 25.6397Z" fill="white"/>
<path d="M143.64 48.2696C142.375 47.2232 141.411 46.043 140.794 44.7836C139.81 42.743 134.769 43.6118 135.753 45.6634C136.478 47.2047 137.623 48.6534 139.135 49.9442C139.99 50.6613 141.37 51.0532 142.709 50.5394C143.826 50.1216 144.501 48.9904 143.64 48.2696Z" fill="white"/>
<path d="M143.187 66.0515C141.067 66.8641 138.753 67.4533 136.336 67.7963C133.053 68.2694 134.444 71.4671 137.727 70.9939C140.582 70.5772 143.315 69.876 145.824 68.9164C148.705 67.8111 146.08 64.9424 143.187 66.0515Z" fill="white"/>
<path d="M172.645 56.8888C170.765 56.8584 168.908 56.6215 167.155 56.1887C164.028 55.4081 162.088 58.489 165.232 59.2734C167.399 59.8211 169.698 60.1285 172.028 60.1821C172.714 60.2257 173.4 60.0986 173.941 59.8275C174.482 59.5564 174.836 59.1625 174.929 58.7288C175.089 57.8885 174.072 56.9151 172.645 56.8888Z" fill="white"/>
<path d="M194.445 69.209C194.094 68.83 193.521 68.5546 192.851 68.4431C192.181 68.3315 191.469 68.393 190.871 68.6139L186.383 70.4622C185.793 70.6891 185.365 71.0529 185.19 71.4765C185.015 71.9002 185.107 72.3505 185.446 72.732C185.798 73.1103 186.371 73.385 187.04 73.4965C187.709 73.6079 188.421 73.5471 189.02 73.3271L193.508 71.4788C194.098 71.2519 194.525 70.8881 194.7 70.4645C194.875 70.0408 194.784 69.5906 194.445 69.209V69.209Z" fill="white"/>
<path d="M202.714 57.3783L199.85 53.6816C199.498 53.3033 198.925 53.0285 198.256 52.9171C197.587 52.8056 196.875 52.8665 196.276 53.0864C195.688 53.3139 195.261 53.6777 195.086 54.1011C194.911 54.5245 195.002 54.9744 195.339 55.3562L198.203 59.0528C198.554 59.4319 199.127 59.7073 199.797 59.8188C200.466 59.9303 201.178 59.8689 201.777 59.648C202.367 59.4211 202.795 59.0574 202.97 58.6337C203.145 58.2101 203.053 57.7598 202.714 57.3783V57.3783Z" fill="white"/>
<path d="M225.376 66.5492C222.923 66.7152 220.547 67.1929 218.391 67.9539C215.48 68.9964 218.082 71.8613 221.028 70.8151C222.374 70.3217 223.859 69.9991 225.399 69.8651C226.813 69.7542 228.013 69.1923 228.013 68.2053C227.989 67.3846 226.79 66.4383 225.376 66.5492Z" fill="white"/>
<path d="M173.886 34.0169C171.77 33.9778 169.67 34.2525 167.751 34.8191C166.447 35.1887 166.161 36.3754 166.813 37.0851C167.599 37.9317 169.084 38.0426 170.387 37.6803C171.493 37.3944 172.689 37.2767 173.88 37.3365C174.575 37.3365 175.241 37.1612 175.732 36.8493C176.223 36.5373 176.499 36.1142 176.499 35.673C176.499 35.2318 176.223 34.8087 175.732 34.4967C175.241 34.1848 174.575 34.0095 173.88 34.0095L173.886 34.0169Z" fill="white"/>
<path d="M240.258 26.9551L239.134 24.1382C238.95 23.7137 238.507 23.3531 237.904 23.1357C237.301 22.9184 236.587 22.8621 235.918 22.9793C235.25 23.0964 234.682 23.3774 234.34 23.7604C233.997 24.1435 233.909 24.5971 234.093 25.0217C234.472 25.9606 234.844 26.8996 235.222 27.8386C235.304 28.0556 235.453 28.2599 235.661 28.4395C235.87 28.619 236.133 28.77 236.435 28.8835C236.737 28.9971 237.073 29.0707 237.421 29.1001C237.769 29.1295 238.123 29.114 238.461 29.0546C238.8 28.9952 239.116 28.8931 239.391 28.7544C239.666 28.6156 239.894 28.4432 240.062 28.2472C240.229 28.0512 240.333 27.8358 240.367 27.6138C240.4 27.3918 240.363 27.1677 240.258 26.9551V26.9551Z" fill="white"/>
<path d="M224.81 4.89477L219.519 5.95941C216.323 6.59894 217.691 9.80393 220.91 9.15701L226.202 8.09606C229.397 7.45284 228.029 4.23306 224.81 4.89477Z" fill="white"/>
<path d="M215.341 20.8436C213.489 20.9 211.637 20.7538 209.863 20.4112C206.627 19.7901 205.259 22.9988 208.472 23.6088C210.697 24.0349 213.019 24.2211 215.341 24.1596C218.699 24.0709 218.711 20.7549 215.341 20.8436Z" fill="white"/>
<path d="M191.255 5.60221C190.588 5.48838 189.876 5.54594 189.275 5.76245C188.674 5.97896 188.231 6.33704 188.042 6.75927L186.977 9.51698C186.869 9.73022 186.829 9.95517 186.862 10.1783C186.894 10.4014 186.997 10.6181 187.164 10.8153C187.332 11.0125 187.561 11.186 187.837 11.3255C188.113 11.465 188.431 11.5676 188.771 11.6271C189.111 11.6865 189.467 11.7016 189.816 11.6714C190.166 11.6412 190.502 11.5664 190.805 11.4514C191.108 11.3365 191.371 11.1838 191.578 11.0025C191.786 10.8213 191.933 10.6152 192.012 10.3968L193.077 7.64278C193.253 7.21892 193.161 6.76809 192.821 6.38676C192.48 6.00543 191.918 5.72385 191.255 5.60221V5.60221Z" fill="white"/>
<path d="M143.821 4.23251C142.547 4.23446 141.284 4.08008 140.102 3.77782C138.769 3.45991 137.238 4.12527 136.889 4.93854C136.481 5.8701 137.384 6.6575 138.711 6.97542C140.346 7.36052 142.077 7.55466 143.821 7.54842C147.192 7.55212 147.192 4.23251 143.821 4.23251Z" fill="white"/>
<path d="M237.061 47.0778C236.712 46.2756 235.175 45.5991 233.848 45.9207L227.777 47.4216C226.449 47.7506 225.541 48.5306 225.949 49.4621C226.298 50.268 227.835 50.9408 229.162 50.6229L235.239 49.1183C236.56 48.8078 237.468 48.0167 237.061 47.0778Z" fill="white"/>
<path d="M205.983 33.3759C205.488 33.071 204.827 32.9005 204.138 32.9005C203.448 32.9005 202.787 33.071 202.292 33.3759C200.63 34.2871 199.512 35.5336 199.126 36.9063C198.887 37.7972 199.475 38.6881 200.948 38.9468C202.217 39.1686 203.922 38.6807 204.161 37.7898C204.225 37.5606 204.306 37.3387 204.405 37.1133C204.504 36.8878 204.527 36.8988 204.405 37.0245C204.483 36.921 204.564 36.8175 204.65 36.714C204.696 36.6549 205.191 36.1743 204.999 36.3444C205.284 36.1201 205.604 35.9145 205.954 35.7307C207.065 35.1392 206.932 33.9785 205.983 33.3759Z" fill="white"/>
<path d="M166.234 18.2536L164.086 14.9007C163.55 14.0615 162.339 13.4811 160.873 13.7399C159.621 13.958 158.509 14.9413 159.051 15.7805L161.199 19.1371C161.734 19.9725 162.945 20.5566 164.412 20.2942C165.663 20.0761 166.769 19.0927 166.234 18.2536Z" fill="white"/>
<path d="M141.255 25.6396C140.9 24.83 139.369 24.1609 138.042 24.4788C136.433 24.8852 134.731 25.1248 133.001 25.1886C132.311 25.1952 131.653 25.3723 131.165 25.6821C130.677 25.9919 130.398 26.4103 130.388 26.8484C130.392 27.2874 130.669 27.7075 131.159 28.0175C131.648 28.3276 132.31 28.5026 133.001 28.5045C135.191 28.4467 137.352 28.1684 139.404 27.6802C140.755 27.3549 141.657 26.5749 141.255 25.6396Z" fill="white"/>
<path d="M266.461 48.2696C265.196 47.2232 264.233 46.043 263.615 44.7836C262.631 42.743 257.59 43.6118 258.574 45.6634C259.299 47.2047 260.444 48.6534 261.956 49.9442C262.812 50.6613 264.191 51.0532 265.53 50.5394C266.648 50.1216 267.323 48.9904 266.461 48.2696Z" fill="white"/>
<path d="M266.008 66.0515C263.888 66.8641 261.574 67.4533 259.157 67.7963C255.874 68.2694 257.265 71.4671 260.548 70.9939C263.403 70.5772 266.136 69.876 268.645 68.9164C271.527 67.8111 268.901 64.9424 266.008 66.0515Z" fill="white"/>
<path d="M295.467 56.8888C293.586 56.8584 291.729 56.6215 289.976 56.1887C286.849 55.4081 284.909 58.489 288.054 59.2734C290.22 59.8211 292.519 60.1285 294.849 60.1821C295.535 60.2257 296.221 60.0986 296.762 59.8275C297.303 59.5564 297.657 59.1625 297.75 58.7288C297.91 57.8885 296.894 56.9151 295.467 56.8888Z" fill="white"/>
<path d="M317.266 69.209C316.915 68.83 316.342 68.5546 315.672 68.4431C315.003 68.3315 314.291 68.393 313.692 68.6139L309.204 70.4622C308.614 70.6891 308.187 71.0529 308.012 71.4765C307.837 71.9002 307.928 72.3505 308.267 72.732C308.619 73.1103 309.192 73.385 309.861 73.4965C310.531 73.6079 311.242 73.5471 311.841 73.3271L316.329 71.4788C316.919 71.2519 317.347 70.8881 317.522 70.4645C317.696 70.0408 317.605 69.5906 317.266 69.209V69.209Z" fill="white"/>
<path d="M325.537 57.3783L322.673 53.6816C322.321 53.3033 321.748 53.0285 321.078 52.9171C320.409 52.8056 319.698 52.8665 319.099 53.0864C318.51 53.3139 318.083 53.6777 317.908 54.1011C317.733 54.5245 317.824 54.9744 318.161 55.3562L321.025 59.0528C321.376 59.4319 321.949 59.7073 322.619 59.8188C323.289 59.9303 324.001 59.8689 324.599 59.648C325.189 59.4211 325.617 59.0574 325.792 58.6337C325.967 58.2101 325.875 57.7598 325.537 57.3783V57.3783Z" fill="white"/>
<path d="M348.197 66.5492C345.744 66.7152 343.368 67.1929 341.212 67.9539C338.301 68.9964 340.903 71.8613 343.849 70.8151C345.195 70.3217 346.68 69.9991 348.22 69.8651C349.635 69.7542 350.834 69.1923 350.834 68.2053C350.811 67.3846 349.611 66.4383 348.197 66.5492Z" fill="white"/>
<path d="M296.708 34.0169C294.593 33.9778 292.492 34.2525 290.573 34.8191C289.269 35.1887 288.984 36.3754 289.636 37.0851C290.421 37.9317 291.906 38.0426 293.21 37.6803C294.316 37.3944 295.512 37.2767 296.702 37.3365C297.397 37.3365 298.063 37.1612 298.554 36.8493C299.046 36.5373 299.322 36.1142 299.322 35.673C299.322 35.2318 299.046 34.8087 298.554 34.4967C298.063 34.1848 297.397 34.0095 296.702 34.0095L296.708 34.0169Z" fill="white"/>
<path d="M363.08 26.9551L361.956 24.1382C361.772 23.7137 361.329 23.3531 360.726 23.1357C360.123 22.9184 359.409 22.8621 358.74 22.9793C358.072 23.0964 357.504 23.3774 357.162 23.7604C356.82 24.1435 356.731 24.5971 356.916 25.0217C357.294 25.9606 357.666 26.8996 358.045 27.8386C358.126 28.0556 358.275 28.2599 358.484 28.4395C358.692 28.619 358.955 28.77 359.257 28.8835C359.56 28.9971 359.895 29.0707 360.243 29.1001C360.591 29.1295 360.945 29.114 361.284 29.0546C361.622 28.9952 361.938 28.8931 362.213 28.7544C362.488 28.6156 362.716 28.4432 362.884 28.2472C363.052 28.0512 363.155 27.8358 363.189 27.6138C363.223 27.3918 363.186 27.1677 363.08 26.9551V26.9551Z" fill="white"/>
<path d="M347.632 4.89477L342.34 5.95941C339.145 6.59894 340.513 9.80393 343.732 9.15701L349.023 8.09606C352.218 7.45284 350.851 4.23306 347.632 4.89477Z" fill="white"/>
<path d="M338.162 20.8436C336.311 20.9 334.458 20.7538 332.685 20.4112C329.448 19.7901 328.08 22.9988 331.293 23.6088C333.518 24.0349 335.84 24.2211 338.162 24.1596C341.521 24.0709 341.532 20.7549 338.162 20.8436Z" fill="white"/>
<path d="M314.077 5.60221C313.409 5.48838 312.698 5.54594 312.096 5.76245C311.495 5.97896 311.052 6.33704 310.863 6.75927L309.798 9.51698C309.69 9.73022 309.651 9.95517 309.683 10.1783C309.715 10.4014 309.818 10.6181 309.986 10.8153C310.153 11.0125 310.382 11.186 310.658 11.3255C310.934 11.465 311.252 11.5676 311.592 11.6271C311.932 11.6865 312.288 11.7016 312.638 11.6714C312.987 11.6412 313.323 11.5664 313.626 11.4514C313.929 11.3365 314.192 11.1838 314.4 11.0025C314.607 10.8213 314.755 10.6152 314.833 10.3968L315.898 7.64278C316.075 7.21892 315.983 6.76809 315.642 6.38676C315.302 6.00543 314.74 5.72385 314.077 5.60221V5.60221Z" fill="white"/>
<path d="M266.644 4.23251C265.369 4.23446 264.106 4.08008 262.924 3.77782C261.591 3.45991 260.06 4.12527 259.711 4.93854C259.304 5.8701 260.206 6.6575 261.533 6.97542C263.168 7.36052 264.9 7.55466 266.644 7.54842C270.014 7.55212 270.014 4.23251 266.644 4.23251Z" fill="white"/>
<path d="M359.882 47.0778C359.533 46.2756 357.996 45.5991 356.669 45.9207L350.598 47.4216C349.271 47.7506 348.363 48.5306 348.77 49.4621C349.119 50.268 350.656 50.9408 351.983 50.6229L358.06 49.1183C359.382 48.8078 360.29 48.0167 359.882 47.0778Z" fill="white"/>
<path d="M328.804 33.3759C328.31 33.071 327.648 32.9005 326.959 32.9005C326.27 32.9005 325.608 33.071 325.114 33.3759C323.452 34.2871 322.334 35.5336 321.947 36.9063C321.708 37.7972 322.296 38.6881 323.769 38.9468C325.038 39.1686 326.743 38.6807 326.982 37.7898C327.046 37.5606 327.128 37.3387 327.227 37.1133C327.325 36.8878 327.349 36.8988 327.227 37.0245C327.304 36.921 327.386 36.8175 327.471 36.714C327.518 36.6549 328.012 36.1743 327.82 36.3444C328.105 36.1201 328.425 35.9145 328.775 35.7307C329.887 35.1392 329.753 33.9785 328.804 33.3759Z" fill="white"/>
<path d="M289.055 18.2536L286.907 14.9007C286.371 14.0615 285.161 13.4811 283.694 13.7399C282.442 13.958 281.331 14.9413 281.872 15.7805L284.02 19.1371C284.555 19.9725 285.766 20.5566 287.233 20.2942C288.484 20.0761 289.59 19.0927 289.055 18.2536Z" fill="white"/>
<path d="M264.077 25.6396C263.722 24.83 262.191 24.1609 260.863 24.4788C259.254 24.8852 257.552 25.1248 255.823 25.1886C255.133 25.1952 254.474 25.3723 253.986 25.6821C253.498 25.9919 253.219 26.4103 253.209 26.8484C253.214 27.2874 253.491 27.7075 253.98 28.0175C254.469 28.3276 255.131 28.5026 255.823 28.5045C258.012 28.4467 260.173 28.1684 262.226 27.6802C263.576 27.3549 264.478 26.5749 264.077 25.6396Z" fill="white"/>
<path d="M389.282 48.2696C388.017 47.2232 387.053 46.043 386.435 44.7836C385.451 42.743 380.41 43.6118 381.394 45.6634C382.12 47.2047 383.264 48.6534 384.776 49.9442C385.632 50.6613 387.011 51.0532 388.35 50.5394C389.468 50.1216 390.143 48.9904 389.282 48.2696Z" fill="white"/>
<path d="M388.829 66.0515C386.708 66.8641 384.395 67.4533 381.978 67.7963C378.695 68.2694 380.086 71.4671 383.369 70.9939C386.223 70.5772 388.956 69.876 391.466 68.9164C394.347 67.8111 391.722 64.9424 388.829 66.0515Z" fill="white"/>
<path d="M418.287 56.8888C416.407 56.8584 414.549 56.6215 412.796 56.1887C409.669 55.4081 407.73 58.489 410.874 59.2734C413.041 59.8211 415.339 60.1285 417.67 60.1821C418.356 60.2257 419.041 60.0986 419.582 59.8275C420.123 59.5564 420.478 59.1625 420.571 58.7288C420.731 57.8885 419.714 56.9151 418.287 56.8888Z" fill="white"/>
<path d="M440.086 69.209C439.736 68.83 439.163 68.5546 438.493 68.4431C437.823 68.3315 437.111 68.393 436.512 68.6139L432.025 70.4622C431.435 70.6891 431.007 71.0529 430.832 71.4765C430.657 71.9002 430.749 72.3505 431.087 72.732C431.439 73.1103 432.012 73.385 432.682 73.4965C433.351 73.6079 434.062 73.5471 434.661 73.3271L439.149 71.4788C439.739 71.2519 440.167 70.8881 440.342 70.4645C440.517 70.0408 440.425 69.5906 440.086 69.209V69.209Z" fill="white"/>
<path d="M448.356 57.3783L445.492 53.6816C445.14 53.3033 444.567 53.0285 443.898 52.9171C443.228 52.8056 442.517 52.8665 441.918 53.0864C441.329 53.3139 440.902 53.6777 440.728 54.1011C440.553 54.5245 440.644 54.9744 440.981 55.3562L443.845 59.0528C444.196 59.4319 444.769 59.7073 445.438 59.8188C446.108 59.9303 446.82 59.8689 447.419 59.648C448.009 59.4211 448.436 59.0574 448.611 58.6337C448.786 58.2101 448.695 57.7598 448.356 57.3783V57.3783Z" fill="white"/>
<path d="M471.017 66.5492C468.564 66.7152 466.189 67.1929 464.032 67.9539C461.122 68.9964 463.724 71.8613 466.669 70.8151C468.016 70.3217 469.5 69.9991 471.041 69.8651C472.455 69.7542 473.654 69.1923 473.654 68.2053C473.631 67.3846 472.432 66.4383 471.017 66.5492Z" fill="white"/>
<path d="M419.527 34.0169C417.412 33.9778 415.311 34.2525 413.392 34.8191C412.088 35.1887 411.803 36.3754 412.455 37.0851C413.241 37.9317 414.725 38.0426 416.029 37.6803C417.135 37.3944 418.331 37.2767 419.522 37.3365C420.216 37.3365 420.882 37.1612 421.374 36.8493C421.865 36.5373 422.141 36.1142 422.141 35.673C422.141 35.2318 421.865 34.8087 421.374 34.4967C420.882 34.1848 420.216 34.0095 419.522 34.0095L419.527 34.0169Z" fill="white"/>
<path d="M485.899 26.9551L484.776 24.1382C484.591 23.7137 484.149 23.3531 483.546 23.1357C482.943 22.9184 482.228 22.8621 481.56 22.9793C480.891 23.0964 480.323 23.3774 479.981 23.7604C479.639 24.1435 479.55 24.5971 479.735 25.0217C480.113 25.9606 480.486 26.8996 480.864 27.8386C480.945 28.0556 481.095 28.2599 481.303 28.4395C481.511 28.619 481.774 28.77 482.077 28.8835C482.379 28.9971 482.714 29.0707 483.062 29.1001C483.41 29.1295 483.764 29.114 484.103 29.0546C484.441 28.9952 484.758 28.8931 485.033 28.7544C485.308 28.6156 485.536 28.4432 485.703 28.2472C485.871 28.0512 485.975 27.8358 486.008 27.6138C486.042 27.3918 486.005 27.1677 485.899 26.9551V26.9551Z" fill="white"/>
<path d="M470.452 4.89477L465.161 5.95941C461.965 6.59894 463.333 9.80393 466.552 9.15701L471.843 8.09606C475.039 7.45284 473.671 4.23306 470.452 4.89477Z" fill="white"/>
<path d="M460.982 20.8436C459.131 20.9 457.278 20.7538 455.505 20.4112C452.268 19.7901 450.901 22.9988 454.114 23.6088C456.339 24.0349 458.66 24.2211 460.982 24.1596C464.341 24.0709 464.353 20.7549 460.982 20.8436Z" fill="white"/>
<path d="M436.897 5.60221C436.229 5.48838 435.518 5.54594 434.917 5.76245C434.316 5.97896 433.873 6.33704 433.684 6.75927L432.619 9.51698C432.51 9.73022 432.471 9.95517 432.503 10.1783C432.535 10.4014 432.638 10.6181 432.806 10.8153C432.974 11.0125 433.202 11.186 433.478 11.3255C433.755 11.465 434.072 11.5676 434.412 11.6271C434.753 11.6865 435.108 11.7016 435.458 11.6714C435.807 11.6412 436.144 11.5664 436.447 11.4514C436.749 11.3365 437.013 11.1838 437.22 11.0025C437.427 10.8213 437.575 10.6152 437.654 10.3968L438.719 7.64278C438.895 7.21892 438.803 6.76809 438.462 6.38676C438.122 6.00543 437.56 5.72385 436.897 5.60221V5.60221Z" fill="white"/>
<path d="M389.463 4.23251C388.189 4.23446 386.926 4.08008 385.743 3.77782C384.411 3.45991 382.88 4.12527 382.53 4.93854C382.123 5.8701 383.025 6.6575 384.352 6.97542C385.988 7.36052 387.719 7.55466 389.463 7.54842C392.833 7.55212 392.833 4.23251 389.463 4.23251Z" fill="white"/>
<path d="M482.703 47.0778C482.353 46.2756 480.817 45.5991 479.489 45.9207L473.418 47.4216C472.091 47.7506 471.183 48.5306 471.59 49.4621C471.94 50.268 473.476 50.9408 474.804 50.6229L480.881 49.1183C482.202 48.8078 483.11 48.0167 482.703 47.0778Z" fill="white"/>
<path d="M451.624 33.3759C451.13 33.071 450.468 32.9005 449.779 32.9005C449.09 32.9005 448.428 33.071 447.934 33.3759C446.272 34.2871 445.154 35.5336 444.767 36.9063C444.529 37.7972 445.117 38.6881 446.589 38.9468C447.858 39.1686 449.564 38.6807 449.802 37.7898C449.866 37.5606 449.948 37.3387 450.047 37.1133C450.146 36.8878 450.169 36.8988 450.047 37.0245C450.124 36.921 450.206 36.8175 450.291 36.714C450.338 36.6549 450.833 36.1743 450.641 36.3444C450.926 36.1201 451.246 35.9145 451.595 35.7307C452.707 35.1392 452.573 33.9785 451.624 33.3759Z" fill="white"/>
<path d="M411.875 18.2536L409.727 14.9007C409.192 14.0615 407.981 13.4811 406.514 13.7399C405.263 13.958 404.151 14.9413 404.692 15.7805L406.84 19.1371C407.376 19.9725 408.586 20.5566 410.053 20.2942C411.305 20.0761 412.411 19.0927 411.875 18.2536Z" fill="white"/>
<path d="M386.897 25.6396C386.542 24.83 385.011 24.1609 383.684 24.4788C382.074 24.8852 380.372 25.1248 378.643 25.1886C377.953 25.1952 377.294 25.3723 376.806 25.6821C376.319 25.9919 376.04 26.4103 376.029 26.8484C376.034 27.2874 376.311 27.7075 376.8 28.0175C377.29 28.3276 377.952 28.5026 378.643 28.5045C380.832 28.4467 382.994 28.1684 385.046 27.6802C386.396 27.3549 387.299 26.5749 386.897 25.6396Z" fill="white"/>
<path d="M512.104 48.2696C510.839 47.2232 509.875 46.043 509.257 44.7836C508.274 42.743 503.233 43.6118 504.216 45.6634C504.942 47.2047 506.087 48.6534 507.598 49.9442C508.454 50.6613 509.834 51.0532 511.172 50.5394C512.29 50.1216 512.965 48.9904 512.104 48.2696Z" fill="white"/>
<path d="M511.651 66.0515C509.531 66.8641 507.217 67.4533 504.8 67.7963C501.517 68.2694 502.908 71.4671 506.191 70.9939C509.046 70.5772 511.779 69.876 514.288 68.9164C517.169 67.8111 514.544 64.9424 511.651 66.0515Z" fill="white"/>
<path d="M541.109 56.8888C539.229 56.8584 537.371 56.6215 535.619 56.1887C532.492 55.4081 530.552 58.489 533.696 59.2734C535.863 59.8211 538.162 60.1285 540.492 60.1821C541.178 60.2257 541.864 60.0986 542.405 59.8275C542.946 59.5564 543.3 59.1625 543.393 58.7288C543.553 57.8885 542.536 56.9151 541.109 56.8888Z" fill="white"/>
<path d="M562.909 69.209C562.558 68.83 561.985 68.5546 561.315 68.4431C560.645 68.3315 559.933 68.393 559.335 68.6139L554.847 70.4622C554.257 70.6891 553.829 71.0529 553.654 71.4765C553.479 71.9002 553.571 72.3505 553.91 72.732C554.262 73.1103 554.835 73.385 555.504 73.4965C556.173 73.6079 556.885 73.5471 557.484 73.3271L561.972 71.4788C562.561 71.2519 562.989 70.8881 563.164 70.4645C563.339 70.0408 563.247 69.5906 562.909 69.209V69.209Z" fill="white"/>
<path d="M571.178 57.3783L568.314 53.6816C567.962 53.3033 567.389 53.0285 566.72 52.9171C566.051 52.8056 565.339 52.8665 564.74 53.0864C564.151 53.3139 563.725 53.6777 563.55 54.1011C563.375 54.5245 563.466 54.9744 563.803 55.3562L566.667 59.0528C567.018 59.4319 567.591 59.7073 568.261 59.8188C568.93 59.9303 569.642 59.8689 570.241 59.648C570.831 59.4211 571.259 59.0574 571.434 58.6337C571.608 58.2101 571.517 57.7598 571.178 57.3783V57.3783Z" fill="white"/>
<path d="M593.84 66.5492C591.386 66.7152 589.011 67.1929 586.855 67.9539C583.944 68.9964 586.546 71.8613 589.491 70.8151C590.838 70.3217 592.323 69.9991 593.863 69.8651C595.277 69.7542 596.476 69.1923 596.476 68.2053C596.453 67.3846 595.254 66.4383 593.84 66.5492Z" fill="white"/>
<path d="M542.35 34.0169C540.234 33.9778 538.133 34.2525 536.214 34.8191C534.91 35.1887 534.625 36.3754 535.277 37.0851C536.063 37.9317 537.547 38.0426 538.851 37.6803C539.957 37.3944 541.153 37.2767 542.344 37.3365C543.039 37.3365 543.705 37.1612 544.196 36.8493C544.687 36.5373 544.963 36.1142 544.963 35.673C544.963 35.2318 544.687 34.8087 544.196 34.4967C543.705 34.1848 543.039 34.0095 542.344 34.0095L542.35 34.0169Z" fill="white"/>
<path d="M608.721 26.9551L607.598 24.1382C607.413 23.7137 606.971 23.3531 606.368 23.1357C605.765 22.9184 605.05 22.8621 604.382 22.9793C603.713 23.0964 603.146 23.3774 602.803 23.7604C602.461 24.1435 602.373 24.5971 602.557 25.0217C602.935 25.9606 603.308 26.8996 603.686 27.8386C603.768 28.0556 603.917 28.2599 604.125 28.4395C604.333 28.619 604.597 28.77 604.899 28.8835C605.201 28.9971 605.536 29.0707 605.885 29.1001C606.233 29.1295 606.587 29.114 606.925 29.0546C607.264 28.9952 607.58 28.8931 607.855 28.7544C608.13 28.6156 608.358 28.4432 608.526 28.2472C608.693 28.0512 608.797 27.8358 608.831 27.6138C608.864 27.3918 608.827 27.1677 608.721 26.9551V26.9551Z" fill="white"/>
<path d="M593.274 4.89477L587.983 5.95941C584.787 6.59894 586.155 9.80393 589.374 9.15701L594.665 8.09606C597.861 7.45284 596.493 4.23306 593.274 4.89477Z" fill="white"/>
<path d="M583.805 20.8436C581.953 20.9 580.1 20.7538 578.327 20.4112C575.091 19.7901 573.723 22.9988 576.936 23.6088C579.161 24.0349 581.483 24.2211 583.805 24.1596C587.163 24.0709 587.175 20.7549 583.805 20.8436Z" fill="white"/>
<path d="M559.719 5.60221C559.052 5.48838 558.34 5.54594 557.739 5.76245C557.138 5.97896 556.695 6.33704 556.506 6.75927L555.441 9.51698C555.332 9.73022 555.293 9.95517 555.325 10.1783C555.358 10.4014 555.461 10.6181 555.628 10.8153C555.796 11.0125 556.025 11.186 556.301 11.3255C556.577 11.465 556.895 11.5676 557.235 11.6271C557.575 11.6865 557.93 11.7016 558.28 11.6714C558.63 11.6412 558.966 11.5664 559.269 11.4514C559.572 11.3365 559.835 11.1838 560.042 11.0025C560.25 10.8213 560.397 10.6152 560.476 10.3968L561.541 7.64278C561.717 7.21892 561.625 6.76809 561.285 6.38676C560.944 6.00543 560.382 5.72385 559.719 5.60221V5.60221Z" fill="white"/>
<path d="M512.285 4.23251C511.011 4.23446 509.748 4.08008 508.566 3.77782C507.233 3.45991 505.702 4.12527 505.353 4.93854C504.945 5.8701 505.847 6.6575 507.175 6.97542C508.81 7.36052 510.541 7.55466 512.285 7.54842C515.656 7.55212 515.656 4.23251 512.285 4.23251Z" fill="white"/>
<path d="M605.525 47.0778C605.176 46.2756 603.639 45.5991 602.312 45.9207L596.241 47.4216C594.913 47.7506 594.005 48.5306 594.413 49.4621C594.762 50.268 596.299 50.9408 597.626 50.6229L603.703 49.1183C605.024 48.8078 605.932 48.0167 605.525 47.0778Z" fill="white"/>
<path d="M574.447 33.3759C573.952 33.071 573.29 32.9005 572.601 32.9005C571.912 32.9005 571.25 33.071 570.756 33.3759C569.094 34.2871 567.976 35.5336 567.59 36.9063C567.351 37.7972 567.939 38.6881 569.412 38.9468C570.68 39.1686 572.386 38.6807 572.625 37.7898C572.689 37.5606 572.77 37.3387 572.869 37.1133C572.968 36.8878 572.991 36.8988 572.869 37.0245C572.947 36.921 573.028 36.8175 573.114 36.714C573.16 36.6549 573.655 36.1743 573.463 36.3444C573.748 36.1201 574.068 35.9145 574.417 35.7307C575.529 35.1392 575.395 33.9785 574.447 33.3759Z" fill="white"/>
<path d="M534.697 18.2536L532.55 14.9007C532.014 14.0615 530.803 13.4811 529.336 13.7399C528.085 13.958 526.973 14.9413 527.515 15.7805L529.662 19.1371C530.198 19.9725 531.409 20.5566 532.876 20.2942C534.127 20.0761 535.233 19.0927 534.697 18.2536Z" fill="white"/>
<path d="M509.719 25.6396C509.364 24.83 507.833 24.1609 506.506 24.4788C504.896 24.8852 503.194 25.1248 501.465 25.1886C500.775 25.1952 500.117 25.3723 499.629 25.6821C499.141 25.9919 498.862 26.4103 498.852 26.8484C498.856 27.2874 499.133 27.7075 499.623 28.0175C500.112 28.3276 500.774 28.5026 501.465 28.5045C503.655 28.4467 505.816 28.1684 507.868 27.6802C509.219 27.3549 510.121 26.5749 509.719 25.6396Z" fill="white"/>
<path d="M634.924 48.2696C633.659 47.2232 632.696 46.043 632.078 44.7836C631.094 42.743 626.053 43.6118 627.037 45.6634C627.762 47.2047 628.907 48.6534 630.419 49.9442C631.274 50.6613 632.654 51.0532 633.993 50.5394C635.11 50.1216 635.786 48.9904 634.924 48.2696Z" fill="white"/>
<path d="M634.471 66.0515C632.351 66.8641 630.037 67.4533 627.62 67.7963C624.337 68.2694 625.728 71.4671 629.011 70.9939C631.866 70.5772 634.599 69.876 637.108 68.9164C639.99 67.8111 637.364 64.9424 634.471 66.0515Z" fill="white"/>
<path d="M663.929 56.8888C662.049 56.8584 660.192 56.6215 658.439 56.1887C655.312 55.4081 653.372 58.489 656.517 59.2734C658.683 59.8211 660.982 60.1285 663.312 60.1821C663.998 60.2257 664.684 60.0986 665.225 59.8275C665.766 59.5564 666.12 59.1625 666.213 58.7288C666.373 57.8885 665.357 56.9151 663.929 56.8888Z" fill="white"/>
<path d="M685.729 69.209C685.378 68.83 684.805 68.5546 684.135 68.4431C683.466 68.3315 682.754 68.393 682.155 68.6139L677.667 70.4622C677.077 70.6891 676.649 71.0529 676.474 71.4765C676.3 71.9002 676.391 72.3505 676.73 72.732C677.082 73.1103 677.655 73.385 678.324 73.4965C678.993 73.6079 679.705 73.5471 680.304 73.3271L684.792 71.4788C685.382 71.2519 685.809 70.8881 685.984 70.4645C686.159 70.0408 686.068 69.5906 685.729 69.209V69.209Z" fill="white"/>
<path d="M693.998 57.3783L691.135 53.6816C690.783 53.3033 690.21 53.0285 689.54 52.9171C688.871 52.8056 688.16 52.8665 687.561 53.0864C686.972 53.3139 686.545 53.6777 686.37 54.1011C686.195 54.5245 686.286 54.9744 686.623 55.3562L689.487 59.0528C689.838 59.4319 690.411 59.7073 691.081 59.8188C691.751 59.9303 692.463 59.8689 693.061 59.648C693.651 59.4211 694.079 59.0574 694.254 58.6337C694.429 58.2101 694.337 57.7598 693.998 57.3783V57.3783Z" fill="white"/>
<path d="M716.66 66.5492C714.207 66.7152 711.831 67.1929 709.675 67.9539C706.764 68.9964 709.366 71.8613 712.312 70.8151C713.658 70.3217 715.143 69.9991 716.683 69.8651C718.098 69.7542 719.297 69.1923 719.297 68.2053C719.273 67.3846 718.074 66.4383 716.66 66.5492Z" fill="white"/>
<path d="M665.17 34.0169C663.054 33.9778 660.954 34.2525 659.035 34.8191C657.731 35.1887 657.446 36.3754 658.098 37.0851C658.883 37.9317 660.368 38.0426 661.672 37.6803C662.778 37.3944 663.974 37.2767 665.164 37.3365C665.859 37.3365 666.525 37.1612 667.016 36.8493C667.507 36.5373 667.784 36.1142 667.784 35.673C667.784 35.2318 667.507 34.8087 667.016 34.4967C666.525 34.1848 665.859 34.0095 665.164 34.0095L665.17 34.0169Z" fill="white"/>
<path d="M731.542 26.9551L730.418 24.1382C730.234 23.7137 729.791 23.3531 729.188 23.1357C728.585 22.9184 727.871 22.8621 727.202 22.9793C726.534 23.0964 725.966 23.3774 725.624 23.7604C725.282 24.1435 725.193 24.5971 725.377 25.0217C725.756 25.9606 726.128 26.8996 726.507 27.8386C726.588 28.0556 726.737 28.2599 726.945 28.4395C727.154 28.619 727.417 28.77 727.719 28.8835C728.022 28.9971 728.357 29.0707 728.705 29.1001C729.053 29.1295 729.407 29.114 729.745 29.0546C730.084 28.9952 730.4 28.8931 730.675 28.7544C730.95 28.6156 731.178 28.4432 731.346 28.2472C731.514 28.0512 731.617 27.8358 731.651 27.6138C731.685 27.3918 731.647 27.1677 731.542 26.9551V26.9551Z" fill="white"/>
<path d="M716.095 4.89477L710.803 5.95941C707.608 6.59894 708.976 9.80393 712.195 9.15701L717.486 8.09606C720.681 7.45284 719.313 4.23306 716.095 4.89477Z" fill="white"/>
<path d="M706.624 20.8436C704.773 20.9 702.92 20.7538 701.146 20.4112C697.91 19.7901 696.542 22.9988 699.755 23.6088C701.98 24.0349 704.302 24.2211 706.624 24.1596C709.983 24.0709 709.994 20.7549 706.624 20.8436Z" fill="white"/>
<path d="M682.538 5.60221C681.871 5.48838 681.16 5.54594 680.558 5.76245C679.957 5.97896 679.514 6.33704 679.325 6.75927L678.26 9.51698C678.152 9.73022 678.112 9.95517 678.145 10.1783C678.177 10.4014 678.28 10.6181 678.448 10.8153C678.615 11.0125 678.844 11.186 679.12 11.3255C679.396 11.465 679.714 11.5676 680.054 11.6271C680.394 11.6865 680.75 11.7016 681.099 11.6714C681.449 11.6412 681.785 11.5664 682.088 11.4514C682.391 11.3365 682.654 11.1838 682.862 11.0025C683.069 10.8213 683.217 10.6152 683.295 10.3968L684.36 7.64278C684.537 7.21892 684.445 6.76809 684.104 6.38676C683.764 6.00543 683.202 5.72385 682.538 5.60221V5.60221Z" fill="white"/>
<path d="M635.106 4.23251C633.831 4.23446 632.568 4.08008 631.386 3.77782C630.053 3.45991 628.522 4.12527 628.173 4.93854C627.765 5.8701 628.668 6.6575 629.995 6.97542C631.63 7.36052 633.362 7.55466 635.106 7.54842C638.476 7.55212 638.476 4.23251 635.106 4.23251Z" fill="white"/>
<path d="M728.344 47.0778C727.995 46.2756 726.458 45.5991 725.131 45.9207L719.06 47.4216C717.733 47.7506 716.825 48.5306 717.232 49.4621C717.581 50.268 719.118 50.9408 720.445 50.6229L726.522 49.1183C727.844 48.8078 728.752 48.0167 728.344 47.0778Z" fill="white"/>
<path d="M697.267 33.3759C696.773 33.071 696.111 32.9005 695.422 32.9005C694.733 32.9005 694.071 33.071 693.576 33.3759C691.914 34.2871 690.796 35.5336 690.41 36.9063C690.171 37.7972 690.759 38.6881 692.232 38.9468C693.501 39.1686 695.206 38.6807 695.445 37.7898C695.509 37.5606 695.59 37.3387 695.689 37.1133C695.788 36.8878 695.812 36.8988 695.689 37.0245C695.767 36.921 695.849 36.8175 695.934 36.714C695.98 36.6549 696.475 36.1743 696.283 36.3444C696.568 36.1201 696.888 35.9145 697.238 35.7307C698.35 35.1392 698.216 33.9785 697.267 33.3759Z" fill="white"/>
<path d="M657.518 18.2536L655.37 14.9007C654.834 14.0615 653.624 13.4811 652.157 13.7399C650.905 13.958 649.793 14.9413 650.335 15.7805L652.483 19.1371C653.018 19.9725 654.229 20.5566 655.696 20.2942C656.947 20.0761 658.053 19.0927 657.518 18.2536Z" fill="white"/>
<path d="M632.54 25.6397C632.184 24.8301 630.654 24.161 629.326 24.479C627.717 24.8853 626.015 25.1249 624.285 25.1887C623.596 25.1954 622.937 25.3724 622.449 25.6822C621.961 25.9921 621.682 26.4104 621.672 26.8485C621.676 27.2875 621.954 27.7076 622.443 28.0177C622.932 28.3277 623.594 28.5027 624.285 28.5046C626.475 28.4468 628.636 28.1685 630.688 27.6803C632.039 27.355 632.941 26.575 632.54 25.6397Z" fill="white"/>
<path d="M757.744 48.2696C756.48 47.2232 755.516 46.043 754.898 44.7836C753.914 42.743 748.873 43.6118 749.857 45.6634C750.583 47.2047 751.727 48.6534 753.239 49.9442C754.095 50.6613 755.474 51.0532 756.813 50.5394C757.931 50.1216 758.606 48.9904 757.744 48.2696Z" fill="white"/>
<path d="M757.292 66.0515C755.171 66.8641 752.858 67.4533 750.441 67.7963C747.158 68.2694 748.549 71.4671 751.832 70.9939C754.686 70.5772 757.419 69.876 759.929 68.9164C762.81 67.8111 760.185 64.9424 757.292 66.0515Z" fill="white"/>
<path d="M786.75 56.8888C784.87 56.8584 783.012 56.6215 781.259 56.1887C778.132 55.4081 776.193 58.489 779.337 59.2734C781.504 59.8211 783.802 60.1285 786.133 60.1821C786.818 60.2257 787.504 60.0986 788.045 59.8275C788.586 59.5564 788.941 59.1625 789.034 58.7288C789.193 57.8885 788.177 56.9151 786.75 56.8888Z" fill="white"/>
<path d="M808.549 69.209C808.198 68.83 807.625 68.5546 806.956 68.4431C806.286 68.3315 805.574 68.393 804.975 68.6139L800.487 70.4622C799.898 70.6891 799.47 71.0529 799.295 71.4765C799.12 71.9002 799.211 72.3505 799.55 72.732C799.902 73.1103 800.475 73.385 801.144 73.4965C801.814 73.6079 802.525 73.5471 803.124 73.3271L807.612 71.4788C808.202 71.2519 808.63 70.8881 808.805 70.4645C808.98 70.0408 808.888 69.5906 808.549 69.209V69.209Z" fill="white"/>
<path d="M816.819 57.3783L813.955 53.6816C813.603 53.3033 813.03 53.0285 812.361 52.9171C811.691 52.8056 810.98 52.8665 810.381 53.0864C809.792 53.3139 809.365 53.6777 809.191 54.1011C809.016 54.5245 809.106 54.9744 809.444 55.3562L812.308 59.0528C812.659 59.4319 813.231 59.7073 813.901 59.8188C814.571 59.9303 815.283 59.8689 815.882 59.648C816.472 59.4211 816.899 59.0574 817.074 58.6337C817.249 58.2101 817.157 57.7598 816.819 57.3783V57.3783Z" fill="white"/>
<path d="M839.48 66.5492C837.027 66.7152 834.652 67.1929 832.495 67.9539C829.585 68.9964 832.187 71.8613 835.132 70.8151C836.479 70.3217 837.963 69.9991 839.504 69.8651C840.918 69.7542 842.117 69.1923 842.117 68.2053C842.094 67.3846 840.895 66.4383 839.48 66.5492Z" fill="white"/>
<path d="M787.99 34.0169C785.875 33.9778 783.774 34.2525 781.855 34.8191C780.551 35.1887 780.266 36.3754 780.918 37.0851C781.704 37.9317 783.188 38.0426 784.492 37.6803C785.598 37.3944 786.794 37.2767 787.984 37.3365C788.679 37.3365 789.345 37.1612 789.837 36.8493C790.328 36.5373 790.604 36.1142 790.604 35.673C790.604 35.2318 790.328 34.8087 789.837 34.4967C789.345 34.1848 788.679 34.0095 787.984 34.0095L787.99 34.0169Z" fill="white"/>
<path d="M854.362 26.9551L853.239 24.1382C853.054 23.7137 852.612 23.3531 852.009 23.1357C851.405 22.9184 850.691 22.8621 850.023 22.9793C849.354 23.0964 848.786 23.3774 848.444 23.7604C848.102 24.1435 848.013 24.5971 848.198 25.0217C848.576 25.9606 848.949 26.8996 849.327 27.8386C849.408 28.0556 849.557 28.2599 849.766 28.4395C849.974 28.619 850.237 28.77 850.54 28.8835C850.842 28.9971 851.177 29.0707 851.525 29.1001C851.873 29.1295 852.227 29.114 852.566 29.0546C852.904 28.9952 853.22 28.8931 853.495 28.7544C853.77 28.6156 853.999 28.4432 854.166 28.2472C854.334 28.0512 854.438 27.8358 854.471 27.6138C854.505 27.3918 854.468 27.1677 854.362 26.9551V26.9551Z" fill="white"/>
<path d="M838.915 4.89477L833.624 5.95941C830.428 6.59894 831.796 9.80393 835.015 9.15701L840.306 8.09606C843.502 7.45284 842.134 4.23306 838.915 4.89477Z" fill="white"/>
<path d="M829.445 20.8436C827.594 20.9 825.741 20.7538 823.968 20.4112C820.731 19.7901 819.364 22.9988 822.577 23.6088C824.802 24.0349 827.123 24.2211 829.445 24.1596C832.804 24.0709 832.816 20.7549 829.445 20.8436Z" fill="white"/>
<path d="M805.36 5.60221C804.692 5.48838 803.981 5.54594 803.38 5.76245C802.778 5.97896 802.336 6.33704 802.147 6.75927L801.081 9.51698C800.973 9.73022 800.934 9.95517 800.966 10.1783C800.998 10.4014 801.101 10.6181 801.269 10.8153C801.437 11.0125 801.665 11.186 801.941 11.3255C802.217 11.465 802.535 11.5676 802.875 11.6271C803.216 11.6865 803.571 11.7016 803.921 11.6714C804.27 11.6412 804.607 11.5664 804.91 11.4514C805.212 11.3365 805.475 11.1838 805.683 11.0025C805.89 10.8213 806.038 10.6152 806.116 10.3968L807.182 7.64278C807.358 7.21892 807.266 6.76809 806.925 6.38676C806.585 6.00543 806.023 5.72385 805.36 5.60221V5.60221Z" fill="white"/>
<path d="M757.926 4.23251C756.651 4.23446 755.389 4.08008 754.206 3.77782C752.873 3.45991 751.342 4.12527 750.993 4.93854C750.586 5.8701 751.488 6.6575 752.815 6.97542C754.45 7.36052 756.182 7.55466 757.926 7.54842C761.296 7.55212 761.296 4.23251 757.926 4.23251Z" fill="white"/>
<path d="M851.165 47.0778C850.816 46.2756 849.279 45.5991 847.952 45.9207L841.881 47.4216C840.554 47.7506 839.646 48.5306 840.053 49.4621C840.403 50.268 841.939 50.9408 843.267 50.6229L849.343 49.1183C850.665 48.8078 851.573 48.0167 851.165 47.0778Z" fill="white"/>
<path d="M820.087 33.3759C819.593 33.071 818.931 32.9005 818.242 32.9005C817.553 32.9005 816.891 33.071 816.397 33.3759C814.735 34.2871 813.617 35.5336 813.23 36.9063C812.992 37.7972 813.579 38.6881 815.052 38.9468C816.321 39.1686 818.027 38.6807 818.265 37.7898C818.329 37.5606 818.411 37.3387 818.51 37.1133C818.609 36.8878 818.632 36.8988 818.51 37.0245C818.587 36.921 818.669 36.8175 818.754 36.714C818.801 36.6549 819.296 36.1743 819.103 36.3444C819.389 36.1201 819.709 35.9145 820.058 35.7307C821.17 35.1392 821.036 33.9785 820.087 33.3759Z" fill="white"/>
<path d="M780.338 18.2536L778.19 14.9007C777.655 14.0615 776.444 13.4811 774.977 13.7399C773.726 13.958 772.614 14.9413 773.155 15.7805L775.303 19.1371C775.839 19.9725 777.049 20.5566 778.516 20.2942C779.768 20.0761 780.874 19.0927 780.338 18.2536Z" fill="white"/>
<path d="M755.36 25.6396C755.005 24.83 753.474 24.1609 752.147 24.4788C750.537 24.8852 748.835 25.1248 747.106 25.1886C746.416 25.1952 745.757 25.3723 745.269 25.6821C744.781 25.9919 744.503 26.4103 744.492 26.8484C744.497 27.2874 744.774 27.7075 745.263 28.0175C745.752 28.3276 746.415 28.5026 747.106 28.5045C749.295 28.4467 751.457 28.1684 753.509 27.6802C754.859 27.3549 755.761 26.5749 755.36 25.6396Z" fill="white"/>
</svg>
